<mxfile host="Electron" agent="Mozilla/5.0 (Macintosh; Intel Mac OS X 10_15_7) AppleWebKit/537.36 (KHTML, like Gecko) draw.io/26.2.2 Chrome/134.0.6998.178 Electron/35.1.2 Safari/537.36" version="26.2.2">
  <diagram name="Snowflake" id="zZ-Yqbn4GIz36oTb1J4c">
    <mxGraphModel dx="1347" dy="943" grid="1" gridSize="10" guides="1" tooltips="1" connect="1" arrows="1" fold="1" page="1" pageScale="1" pageWidth="1169" pageHeight="827" math="0" shadow="0">
      <root>
        <mxCell id="0" />
        <mxCell id="1" parent="0" />
        <mxCell id="DbLl5ZKrvp2yoWORLzQD-1" value="" style="edgeStyle=orthogonalEdgeStyle;rounded=0;orthogonalLoop=1;jettySize=auto;html=1;entryX=0;entryY=0.5;entryDx=0;entryDy=0;exitX=1;exitY=0.5;exitDx=0;exitDy=0;endArrow=none;startFill=0;" edge="1" parent="1" source="DbLl5ZKrvp2yoWORLzQD-8" target="DbLl5ZKrvp2yoWORLzQD-308">
          <mxGeometry relative="1" as="geometry" />
        </mxCell>
        <mxCell id="DbLl5ZKrvp2yoWORLzQD-2" value="n" style="edgeLabel;html=1;align=center;verticalAlign=middle;resizable=0;points=[];fontStyle=1" vertex="1" connectable="0" parent="DbLl5ZKrvp2yoWORLzQD-1">
          <mxGeometry x="-0.7058" y="3" relative="1" as="geometry">
            <mxPoint y="1" as="offset" />
          </mxGeometry>
        </mxCell>
        <mxCell id="DbLl5ZKrvp2yoWORLzQD-3" value="1" style="edgeLabel;html=1;align=center;verticalAlign=middle;resizable=0;points=[];fontStyle=1" vertex="1" connectable="0" parent="DbLl5ZKrvp2yoWORLzQD-1">
          <mxGeometry x="0.6992" y="4" relative="1" as="geometry">
            <mxPoint x="1" y="2" as="offset" />
          </mxGeometry>
        </mxCell>
        <mxCell id="DbLl5ZKrvp2yoWORLzQD-4" value="Dim_Customer" style="shape=table;startSize=30;container=1;collapsible=1;childLayout=tableLayout;fixedRows=1;rowLines=0;fontStyle=1;align=center;resizeLast=1;html=1;fillColor=#ffe6cc;strokeColor=#d79b00;" vertex="1" parent="1">
          <mxGeometry x="968" y="60" width="190" height="210" as="geometry" />
        </mxCell>
        <mxCell id="DbLl5ZKrvp2yoWORLzQD-5" value="" style="shape=tableRow;horizontal=0;startSize=0;swimlaneHead=0;swimlaneBody=0;fillColor=none;collapsible=0;dropTarget=0;points=[[0,0.5],[1,0.5]];portConstraint=eastwest;top=0;left=0;right=0;bottom=1;" vertex="1" parent="DbLl5ZKrvp2yoWORLzQD-4">
          <mxGeometry y="30" width="190" height="30" as="geometry" />
        </mxCell>
        <mxCell id="DbLl5ZKrvp2yoWORLzQD-6" value="PK" style="shape=partialRectangle;connectable=0;fillColor=none;top=0;left=0;bottom=0;right=0;fontStyle=1;overflow=hidden;whiteSpace=wrap;html=1;" vertex="1" parent="DbLl5ZKrvp2yoWORLzQD-5">
          <mxGeometry width="30" height="30" as="geometry">
            <mxRectangle width="30" height="30" as="alternateBounds" />
          </mxGeometry>
        </mxCell>
        <mxCell id="DbLl5ZKrvp2yoWORLzQD-7" value="Customer_ID" style="shape=partialRectangle;connectable=0;fillColor=none;top=0;left=0;bottom=0;right=0;align=left;spacingLeft=6;fontStyle=5;overflow=hidden;whiteSpace=wrap;html=1;" vertex="1" parent="DbLl5ZKrvp2yoWORLzQD-5">
          <mxGeometry x="30" width="160" height="30" as="geometry">
            <mxRectangle width="160" height="30" as="alternateBounds" />
          </mxGeometry>
        </mxCell>
        <mxCell id="DbLl5ZKrvp2yoWORLzQD-8" value="" style="shape=tableRow;horizontal=0;startSize=0;swimlaneHead=0;swimlaneBody=0;fillColor=none;collapsible=0;dropTarget=0;points=[[0,0.5],[1,0.5]];portConstraint=eastwest;top=0;left=0;right=0;bottom=0;" vertex="1" parent="DbLl5ZKrvp2yoWORLzQD-4">
          <mxGeometry y="60" width="190" height="30" as="geometry" />
        </mxCell>
        <mxCell id="DbLl5ZKrvp2yoWORLzQD-9" value="FK" style="shape=partialRectangle;connectable=0;fillColor=none;top=0;left=0;bottom=0;right=0;editable=1;overflow=hidden;whiteSpace=wrap;html=1;" vertex="1" parent="DbLl5ZKrvp2yoWORLzQD-8">
          <mxGeometry width="30" height="30" as="geometry">
            <mxRectangle width="30" height="30" as="alternateBounds" />
          </mxGeometry>
        </mxCell>
        <mxCell id="DbLl5ZKrvp2yoWORLzQD-10" value="customer_loyalty_status_ID" style="shape=partialRectangle;connectable=0;fillColor=none;top=0;left=0;bottom=0;right=0;align=left;spacingLeft=6;overflow=hidden;whiteSpace=wrap;html=1;" vertex="1" parent="DbLl5ZKrvp2yoWORLzQD-8">
          <mxGeometry x="30" width="160" height="30" as="geometry">
            <mxRectangle width="160" height="30" as="alternateBounds" />
          </mxGeometry>
        </mxCell>
        <mxCell id="DbLl5ZKrvp2yoWORLzQD-11" value="" style="shape=tableRow;horizontal=0;startSize=0;swimlaneHead=0;swimlaneBody=0;fillColor=none;collapsible=0;dropTarget=0;points=[[0,0.5],[1,0.5]];portConstraint=eastwest;top=0;left=0;right=0;bottom=0;" vertex="1" parent="DbLl5ZKrvp2yoWORLzQD-4">
          <mxGeometry y="90" width="190" height="30" as="geometry" />
        </mxCell>
        <mxCell id="DbLl5ZKrvp2yoWORLzQD-12" value="" style="shape=partialRectangle;connectable=0;fillColor=none;top=0;left=0;bottom=0;right=0;editable=1;overflow=hidden;whiteSpace=wrap;html=1;" vertex="1" parent="DbLl5ZKrvp2yoWORLzQD-11">
          <mxGeometry width="30" height="30" as="geometry">
            <mxRectangle width="30" height="30" as="alternateBounds" />
          </mxGeometry>
        </mxCell>
        <mxCell id="DbLl5ZKrvp2yoWORLzQD-13" value="customer_name" style="shape=partialRectangle;connectable=0;fillColor=none;top=0;left=0;bottom=0;right=0;align=left;spacingLeft=6;overflow=hidden;whiteSpace=wrap;html=1;" vertex="1" parent="DbLl5ZKrvp2yoWORLzQD-11">
          <mxGeometry x="30" width="160" height="30" as="geometry">
            <mxRectangle width="160" height="30" as="alternateBounds" />
          </mxGeometry>
        </mxCell>
        <mxCell id="DbLl5ZKrvp2yoWORLzQD-14" value="" style="shape=tableRow;horizontal=0;startSize=0;swimlaneHead=0;swimlaneBody=0;fillColor=none;collapsible=0;dropTarget=0;points=[[0,0.5],[1,0.5]];portConstraint=eastwest;top=0;left=0;right=0;bottom=0;" vertex="1" parent="DbLl5ZKrvp2yoWORLzQD-4">
          <mxGeometry y="120" width="190" height="30" as="geometry" />
        </mxCell>
        <mxCell id="DbLl5ZKrvp2yoWORLzQD-15" value="" style="shape=partialRectangle;connectable=0;fillColor=none;top=0;left=0;bottom=0;right=0;editable=1;overflow=hidden;whiteSpace=wrap;html=1;" vertex="1" parent="DbLl5ZKrvp2yoWORLzQD-14">
          <mxGeometry width="30" height="30" as="geometry">
            <mxRectangle width="30" height="30" as="alternateBounds" />
          </mxGeometry>
        </mxCell>
        <mxCell id="DbLl5ZKrvp2yoWORLzQD-16" value="customer_email" style="shape=partialRectangle;connectable=0;fillColor=none;top=0;left=0;bottom=0;right=0;align=left;spacingLeft=6;overflow=hidden;whiteSpace=wrap;html=1;" vertex="1" parent="DbLl5ZKrvp2yoWORLzQD-14">
          <mxGeometry x="30" width="160" height="30" as="geometry">
            <mxRectangle width="160" height="30" as="alternateBounds" />
          </mxGeometry>
        </mxCell>
        <mxCell id="DbLl5ZKrvp2yoWORLzQD-17" value="" style="shape=tableRow;horizontal=0;startSize=0;swimlaneHead=0;swimlaneBody=0;fillColor=none;collapsible=0;dropTarget=0;points=[[0,0.5],[1,0.5]];portConstraint=eastwest;top=0;left=0;right=0;bottom=0;" vertex="1" parent="DbLl5ZKrvp2yoWORLzQD-4">
          <mxGeometry y="150" width="190" height="30" as="geometry" />
        </mxCell>
        <mxCell id="DbLl5ZKrvp2yoWORLzQD-18" value="" style="shape=partialRectangle;connectable=0;fillColor=none;top=0;left=0;bottom=0;right=0;editable=1;overflow=hidden;whiteSpace=wrap;html=1;" vertex="1" parent="DbLl5ZKrvp2yoWORLzQD-17">
          <mxGeometry width="30" height="30" as="geometry">
            <mxRectangle width="30" height="30" as="alternateBounds" />
          </mxGeometry>
        </mxCell>
        <mxCell id="DbLl5ZKrvp2yoWORLzQD-19" value="Date from" style="shape=partialRectangle;connectable=0;fillColor=none;top=0;left=0;bottom=0;right=0;align=left;spacingLeft=6;overflow=hidden;whiteSpace=wrap;html=1;" vertex="1" parent="DbLl5ZKrvp2yoWORLzQD-17">
          <mxGeometry x="30" width="160" height="30" as="geometry">
            <mxRectangle width="160" height="30" as="alternateBounds" />
          </mxGeometry>
        </mxCell>
        <mxCell id="DbLl5ZKrvp2yoWORLzQD-20" value="" style="shape=tableRow;horizontal=0;startSize=0;swimlaneHead=0;swimlaneBody=0;fillColor=none;collapsible=0;dropTarget=0;points=[[0,0.5],[1,0.5]];portConstraint=eastwest;top=0;left=0;right=0;bottom=0;" vertex="1" parent="DbLl5ZKrvp2yoWORLzQD-4">
          <mxGeometry y="180" width="190" height="30" as="geometry" />
        </mxCell>
        <mxCell id="DbLl5ZKrvp2yoWORLzQD-21" value="" style="shape=partialRectangle;connectable=0;fillColor=none;top=0;left=0;bottom=0;right=0;editable=1;overflow=hidden;whiteSpace=wrap;html=1;" vertex="1" parent="DbLl5ZKrvp2yoWORLzQD-20">
          <mxGeometry width="30" height="30" as="geometry">
            <mxRectangle width="30" height="30" as="alternateBounds" />
          </mxGeometry>
        </mxCell>
        <mxCell id="DbLl5ZKrvp2yoWORLzQD-22" value="Date to" style="shape=partialRectangle;connectable=0;fillColor=none;top=0;left=0;bottom=0;right=0;align=left;spacingLeft=6;overflow=hidden;whiteSpace=wrap;html=1;" vertex="1" parent="DbLl5ZKrvp2yoWORLzQD-20">
          <mxGeometry x="30" width="160" height="30" as="geometry">
            <mxRectangle width="160" height="30" as="alternateBounds" />
          </mxGeometry>
        </mxCell>
        <mxCell id="DbLl5ZKrvp2yoWORLzQD-23" value="" style="edgeStyle=orthogonalEdgeStyle;rounded=0;orthogonalLoop=1;jettySize=auto;html=1;entryX=0.997;entryY=0.733;entryDx=0;entryDy=0;entryPerimeter=0;exitX=0;exitY=0.5;exitDx=0;exitDy=0;endArrow=none;startFill=0;" edge="1" parent="1" source="DbLl5ZKrvp2yoWORLzQD-39" target="DbLl5ZKrvp2yoWORLzQD-230">
          <mxGeometry relative="1" as="geometry">
            <Array as="points">
              <mxPoint x="328" y="270" />
              <mxPoint x="328" y="102" />
            </Array>
          </mxGeometry>
        </mxCell>
        <mxCell id="DbLl5ZKrvp2yoWORLzQD-24" value="1" style="edgeLabel;html=1;align=center;verticalAlign=middle;resizable=0;points=[];fontStyle=1" vertex="1" connectable="0" parent="DbLl5ZKrvp2yoWORLzQD-23">
          <mxGeometry x="0.8126" y="-1" relative="1" as="geometry">
            <mxPoint as="offset" />
          </mxGeometry>
        </mxCell>
        <mxCell id="DbLl5ZKrvp2yoWORLzQD-25" value="n" style="edgeLabel;html=1;align=center;verticalAlign=middle;resizable=0;points=[];fontStyle=1" vertex="1" connectable="0" parent="DbLl5ZKrvp2yoWORLzQD-23">
          <mxGeometry x="-0.7232" y="1" relative="1" as="geometry">
            <mxPoint as="offset" />
          </mxGeometry>
        </mxCell>
        <mxCell id="DbLl5ZKrvp2yoWORLzQD-26" value="" style="edgeStyle=orthogonalEdgeStyle;rounded=0;orthogonalLoop=1;jettySize=auto;html=1;exitX=0;exitY=0.5;exitDx=0;exitDy=0;entryX=1;entryY=0.5;entryDx=0;entryDy=0;endArrow=none;startFill=0;" edge="1" parent="1" source="DbLl5ZKrvp2yoWORLzQD-42" target="DbLl5ZKrvp2yoWORLzQD-243">
          <mxGeometry relative="1" as="geometry" />
        </mxCell>
        <mxCell id="DbLl5ZKrvp2yoWORLzQD-27" value="1" style="edgeLabel;html=1;align=center;verticalAlign=middle;resizable=0;points=[];fontStyle=1" vertex="1" connectable="0" parent="DbLl5ZKrvp2yoWORLzQD-26">
          <mxGeometry x="0.6267" y="-1" relative="1" as="geometry">
            <mxPoint as="offset" />
          </mxGeometry>
        </mxCell>
        <mxCell id="DbLl5ZKrvp2yoWORLzQD-28" value="n" style="edgeLabel;html=1;align=center;verticalAlign=middle;resizable=0;points=[];fontStyle=1" vertex="1" connectable="0" parent="DbLl5ZKrvp2yoWORLzQD-26">
          <mxGeometry x="-0.7244" relative="1" as="geometry">
            <mxPoint as="offset" />
          </mxGeometry>
        </mxCell>
        <mxCell id="DbLl5ZKrvp2yoWORLzQD-29" value="" style="edgeStyle=orthogonalEdgeStyle;rounded=0;orthogonalLoop=1;jettySize=auto;html=1;exitX=0;exitY=0.5;exitDx=0;exitDy=0;endArrow=none;startFill=0;" edge="1" parent="1" source="DbLl5ZKrvp2yoWORLzQD-45" target="DbLl5ZKrvp2yoWORLzQD-256">
          <mxGeometry relative="1" as="geometry">
            <Array as="points">
              <mxPoint x="288" y="330" />
              <mxPoint x="288" y="440" />
            </Array>
          </mxGeometry>
        </mxCell>
        <mxCell id="DbLl5ZKrvp2yoWORLzQD-30" value="1" style="edgeLabel;html=1;align=center;verticalAlign=middle;resizable=0;points=[];fontStyle=1" vertex="1" connectable="0" parent="DbLl5ZKrvp2yoWORLzQD-29">
          <mxGeometry x="0.6774" y="2" relative="1" as="geometry">
            <mxPoint as="offset" />
          </mxGeometry>
        </mxCell>
        <mxCell id="DbLl5ZKrvp2yoWORLzQD-31" value="n" style="edgeLabel;html=1;align=center;verticalAlign=middle;resizable=0;points=[];fontStyle=1" vertex="1" connectable="0" parent="DbLl5ZKrvp2yoWORLzQD-29">
          <mxGeometry x="-0.7935" y="-2" relative="1" as="geometry">
            <mxPoint as="offset" />
          </mxGeometry>
        </mxCell>
        <mxCell id="DbLl5ZKrvp2yoWORLzQD-32" value="" style="edgeStyle=orthogonalEdgeStyle;rounded=0;orthogonalLoop=1;jettySize=auto;html=1;exitX=0;exitY=0.5;exitDx=0;exitDy=0;endArrow=none;startFill=0;" edge="1" parent="1" source="DbLl5ZKrvp2yoWORLzQD-48" target="DbLl5ZKrvp2yoWORLzQD-269">
          <mxGeometry relative="1" as="geometry">
            <Array as="points">
              <mxPoint x="298" y="360" />
              <mxPoint x="298" y="610" />
            </Array>
          </mxGeometry>
        </mxCell>
        <mxCell id="DbLl5ZKrvp2yoWORLzQD-33" value="n" style="edgeLabel;html=1;align=center;verticalAlign=middle;resizable=0;points=[];fontStyle=1" vertex="1" connectable="0" parent="DbLl5ZKrvp2yoWORLzQD-32">
          <mxGeometry x="-0.8667" y="1" relative="1" as="geometry">
            <mxPoint as="offset" />
          </mxGeometry>
        </mxCell>
        <mxCell id="DbLl5ZKrvp2yoWORLzQD-34" value="1" style="edgeLabel;html=1;align=center;verticalAlign=middle;resizable=0;points=[];fontStyle=1" vertex="1" connectable="0" parent="DbLl5ZKrvp2yoWORLzQD-32">
          <mxGeometry x="0.8529" y="3" relative="1" as="geometry">
            <mxPoint y="-3" as="offset" />
          </mxGeometry>
        </mxCell>
        <mxCell id="DbLl5ZKrvp2yoWORLzQD-35" value="Dim_Product" style="shape=table;startSize=30;container=1;collapsible=1;childLayout=tableLayout;fixedRows=1;rowLines=0;fontStyle=1;align=center;resizeLast=1;html=1;fillColor=#ffe6cc;strokeColor=#d79b00;" vertex="1" parent="1">
          <mxGeometry x="358" y="195" width="180" height="270" as="geometry" />
        </mxCell>
        <mxCell id="DbLl5ZKrvp2yoWORLzQD-36" value="" style="shape=tableRow;horizontal=0;startSize=0;swimlaneHead=0;swimlaneBody=0;fillColor=none;collapsible=0;dropTarget=0;points=[[0,0.5],[1,0.5]];portConstraint=eastwest;top=0;left=0;right=0;bottom=1;" vertex="1" parent="DbLl5ZKrvp2yoWORLzQD-35">
          <mxGeometry y="30" width="180" height="30" as="geometry" />
        </mxCell>
        <mxCell id="DbLl5ZKrvp2yoWORLzQD-37" value="PK" style="shape=partialRectangle;connectable=0;fillColor=none;top=0;left=0;bottom=0;right=0;fontStyle=1;overflow=hidden;whiteSpace=wrap;html=1;" vertex="1" parent="DbLl5ZKrvp2yoWORLzQD-36">
          <mxGeometry width="30" height="30" as="geometry">
            <mxRectangle width="30" height="30" as="alternateBounds" />
          </mxGeometry>
        </mxCell>
        <mxCell id="DbLl5ZKrvp2yoWORLzQD-38" value="Product_ID" style="shape=partialRectangle;connectable=0;fillColor=none;top=0;left=0;bottom=0;right=0;align=left;spacingLeft=6;fontStyle=5;overflow=hidden;whiteSpace=wrap;html=1;" vertex="1" parent="DbLl5ZKrvp2yoWORLzQD-36">
          <mxGeometry x="30" width="150" height="30" as="geometry">
            <mxRectangle width="150" height="30" as="alternateBounds" />
          </mxGeometry>
        </mxCell>
        <mxCell id="DbLl5ZKrvp2yoWORLzQD-39" value="" style="shape=tableRow;horizontal=0;startSize=0;swimlaneHead=0;swimlaneBody=0;fillColor=none;collapsible=0;dropTarget=0;points=[[0,0.5],[1,0.5]];portConstraint=eastwest;top=0;left=0;right=0;bottom=0;" vertex="1" parent="DbLl5ZKrvp2yoWORLzQD-35">
          <mxGeometry y="60" width="180" height="30" as="geometry" />
        </mxCell>
        <mxCell id="DbLl5ZKrvp2yoWORLzQD-40" value="FK" style="shape=partialRectangle;connectable=0;fillColor=none;top=0;left=0;bottom=0;right=0;editable=1;overflow=hidden;whiteSpace=wrap;html=1;" vertex="1" parent="DbLl5ZKrvp2yoWORLzQD-39">
          <mxGeometry width="30" height="30" as="geometry">
            <mxRectangle width="30" height="30" as="alternateBounds" />
          </mxGeometry>
        </mxCell>
        <mxCell id="DbLl5ZKrvp2yoWORLzQD-41" value="Product_category_ID" style="shape=partialRectangle;connectable=0;fillColor=none;top=0;left=0;bottom=0;right=0;align=left;spacingLeft=6;overflow=hidden;whiteSpace=wrap;html=1;" vertex="1" parent="DbLl5ZKrvp2yoWORLzQD-39">
          <mxGeometry x="30" width="150" height="30" as="geometry">
            <mxRectangle width="150" height="30" as="alternateBounds" />
          </mxGeometry>
        </mxCell>
        <mxCell id="DbLl5ZKrvp2yoWORLzQD-42" value="" style="shape=tableRow;horizontal=0;startSize=0;swimlaneHead=0;swimlaneBody=0;fillColor=none;collapsible=0;dropTarget=0;points=[[0,0.5],[1,0.5]];portConstraint=eastwest;top=0;left=0;right=0;bottom=0;" vertex="1" parent="DbLl5ZKrvp2yoWORLzQD-35">
          <mxGeometry y="90" width="180" height="30" as="geometry" />
        </mxCell>
        <mxCell id="DbLl5ZKrvp2yoWORLzQD-43" value="FK" style="shape=partialRectangle;connectable=0;fillColor=none;top=0;left=0;bottom=0;right=0;editable=1;overflow=hidden;whiteSpace=wrap;html=1;" vertex="1" parent="DbLl5ZKrvp2yoWORLzQD-42">
          <mxGeometry width="30" height="30" as="geometry">
            <mxRectangle width="30" height="30" as="alternateBounds" />
          </mxGeometry>
        </mxCell>
        <mxCell id="DbLl5ZKrvp2yoWORLzQD-44" value="Product_subcategory_ID" style="shape=partialRectangle;connectable=0;fillColor=none;top=0;left=0;bottom=0;right=0;align=left;spacingLeft=6;overflow=hidden;whiteSpace=wrap;html=1;" vertex="1" parent="DbLl5ZKrvp2yoWORLzQD-42">
          <mxGeometry x="30" width="150" height="30" as="geometry">
            <mxRectangle width="150" height="30" as="alternateBounds" />
          </mxGeometry>
        </mxCell>
        <mxCell id="DbLl5ZKrvp2yoWORLzQD-45" value="" style="shape=tableRow;horizontal=0;startSize=0;swimlaneHead=0;swimlaneBody=0;fillColor=none;collapsible=0;dropTarget=0;points=[[0,0.5],[1,0.5]];portConstraint=eastwest;top=0;left=0;right=0;bottom=0;" vertex="1" parent="DbLl5ZKrvp2yoWORLzQD-35">
          <mxGeometry y="120" width="180" height="30" as="geometry" />
        </mxCell>
        <mxCell id="DbLl5ZKrvp2yoWORLzQD-46" value="FK" style="shape=partialRectangle;connectable=0;fillColor=none;top=0;left=0;bottom=0;right=0;editable=1;overflow=hidden;whiteSpace=wrap;html=1;" vertex="1" parent="DbLl5ZKrvp2yoWORLzQD-45">
          <mxGeometry width="30" height="30" as="geometry">
            <mxRectangle width="30" height="30" as="alternateBounds" />
          </mxGeometry>
        </mxCell>
        <mxCell id="DbLl5ZKrvp2yoWORLzQD-47" value="Product_brand_ID" style="shape=partialRectangle;connectable=0;fillColor=none;top=0;left=0;bottom=0;right=0;align=left;spacingLeft=6;overflow=hidden;whiteSpace=wrap;html=1;" vertex="1" parent="DbLl5ZKrvp2yoWORLzQD-45">
          <mxGeometry x="30" width="150" height="30" as="geometry">
            <mxRectangle width="150" height="30" as="alternateBounds" />
          </mxGeometry>
        </mxCell>
        <mxCell id="DbLl5ZKrvp2yoWORLzQD-48" value="" style="shape=tableRow;horizontal=0;startSize=0;swimlaneHead=0;swimlaneBody=0;fillColor=none;collapsible=0;dropTarget=0;points=[[0,0.5],[1,0.5]];portConstraint=eastwest;top=0;left=0;right=0;bottom=0;" vertex="1" parent="DbLl5ZKrvp2yoWORLzQD-35">
          <mxGeometry y="150" width="180" height="30" as="geometry" />
        </mxCell>
        <mxCell id="DbLl5ZKrvp2yoWORLzQD-49" value="FK" style="shape=partialRectangle;connectable=0;fillColor=none;top=0;left=0;bottom=0;right=0;editable=1;overflow=hidden;whiteSpace=wrap;html=1;" vertex="1" parent="DbLl5ZKrvp2yoWORLzQD-48">
          <mxGeometry width="30" height="30" as="geometry">
            <mxRectangle width="30" height="30" as="alternateBounds" />
          </mxGeometry>
        </mxCell>
        <mxCell id="DbLl5ZKrvp2yoWORLzQD-50" value="Product_department_ID" style="shape=partialRectangle;connectable=0;fillColor=none;top=0;left=0;bottom=0;right=0;align=left;spacingLeft=6;overflow=hidden;whiteSpace=wrap;html=1;" vertex="1" parent="DbLl5ZKrvp2yoWORLzQD-48">
          <mxGeometry x="30" width="150" height="30" as="geometry">
            <mxRectangle width="150" height="30" as="alternateBounds" />
          </mxGeometry>
        </mxCell>
        <mxCell id="DbLl5ZKrvp2yoWORLzQD-51" value="" style="shape=tableRow;horizontal=0;startSize=0;swimlaneHead=0;swimlaneBody=0;fillColor=none;collapsible=0;dropTarget=0;points=[[0,0.5],[1,0.5]];portConstraint=eastwest;top=0;left=0;right=0;bottom=0;" vertex="1" parent="DbLl5ZKrvp2yoWORLzQD-35">
          <mxGeometry y="180" width="180" height="30" as="geometry" />
        </mxCell>
        <mxCell id="DbLl5ZKrvp2yoWORLzQD-52" value="" style="shape=partialRectangle;connectable=0;fillColor=none;top=0;left=0;bottom=0;right=0;editable=1;overflow=hidden;whiteSpace=wrap;html=1;" vertex="1" parent="DbLl5ZKrvp2yoWORLzQD-51">
          <mxGeometry width="30" height="30" as="geometry">
            <mxRectangle width="30" height="30" as="alternateBounds" />
          </mxGeometry>
        </mxCell>
        <mxCell id="DbLl5ZKrvp2yoWORLzQD-53" value="Product_name" style="shape=partialRectangle;connectable=0;fillColor=none;top=0;left=0;bottom=0;right=0;align=left;spacingLeft=6;overflow=hidden;whiteSpace=wrap;html=1;" vertex="1" parent="DbLl5ZKrvp2yoWORLzQD-51">
          <mxGeometry x="30" width="150" height="30" as="geometry">
            <mxRectangle width="150" height="30" as="alternateBounds" />
          </mxGeometry>
        </mxCell>
        <mxCell id="DbLl5ZKrvp2yoWORLzQD-54" value="" style="shape=tableRow;horizontal=0;startSize=0;swimlaneHead=0;swimlaneBody=0;fillColor=none;collapsible=0;dropTarget=0;points=[[0,0.5],[1,0.5]];portConstraint=eastwest;top=0;left=0;right=0;bottom=0;" vertex="1" parent="DbLl5ZKrvp2yoWORLzQD-35">
          <mxGeometry y="210" width="180" height="30" as="geometry" />
        </mxCell>
        <mxCell id="DbLl5ZKrvp2yoWORLzQD-55" value="" style="shape=partialRectangle;connectable=0;fillColor=none;top=0;left=0;bottom=0;right=0;editable=1;overflow=hidden;whiteSpace=wrap;html=1;" vertex="1" parent="DbLl5ZKrvp2yoWORLzQD-54">
          <mxGeometry width="30" height="30" as="geometry">
            <mxRectangle width="30" height="30" as="alternateBounds" />
          </mxGeometry>
        </mxCell>
        <mxCell id="DbLl5ZKrvp2yoWORLzQD-56" value="Date from" style="shape=partialRectangle;connectable=0;fillColor=none;top=0;left=0;bottom=0;right=0;align=left;spacingLeft=6;overflow=hidden;whiteSpace=wrap;html=1;" vertex="1" parent="DbLl5ZKrvp2yoWORLzQD-54">
          <mxGeometry x="30" width="150" height="30" as="geometry">
            <mxRectangle width="150" height="30" as="alternateBounds" />
          </mxGeometry>
        </mxCell>
        <mxCell id="DbLl5ZKrvp2yoWORLzQD-57" value="" style="shape=tableRow;horizontal=0;startSize=0;swimlaneHead=0;swimlaneBody=0;fillColor=none;collapsible=0;dropTarget=0;points=[[0,0.5],[1,0.5]];portConstraint=eastwest;top=0;left=0;right=0;bottom=0;" vertex="1" parent="DbLl5ZKrvp2yoWORLzQD-35">
          <mxGeometry y="240" width="180" height="30" as="geometry" />
        </mxCell>
        <mxCell id="DbLl5ZKrvp2yoWORLzQD-58" value="" style="shape=partialRectangle;connectable=0;fillColor=none;top=0;left=0;bottom=0;right=0;editable=1;overflow=hidden;whiteSpace=wrap;html=1;" vertex="1" parent="DbLl5ZKrvp2yoWORLzQD-57">
          <mxGeometry width="30" height="30" as="geometry">
            <mxRectangle width="30" height="30" as="alternateBounds" />
          </mxGeometry>
        </mxCell>
        <mxCell id="DbLl5ZKrvp2yoWORLzQD-59" value="&lt;meta charset=&quot;utf-8&quot;&gt;&lt;span style=&quot;color: rgb(0, 0, 0); font-family: Helvetica; font-size: 12px; font-style: normal; font-variant-ligatures: normal; font-variant-caps: normal; font-weight: 400; letter-spacing: normal; orphans: 2; text-align: left; text-indent: 0px; text-transform: none; widows: 2; word-spacing: 0px; -webkit-text-stroke-width: 0px; white-space: normal; background-color: rgb(236, 236, 236); text-decoration-thickness: initial; text-decoration-style: initial; text-decoration-color: initial; display: inline !important; float: none;&quot;&gt;Date to&lt;/span&gt;" style="shape=partialRectangle;connectable=0;fillColor=none;top=0;left=0;bottom=0;right=0;align=left;spacingLeft=6;overflow=hidden;whiteSpace=wrap;html=1;" vertex="1" parent="DbLl5ZKrvp2yoWORLzQD-57">
          <mxGeometry x="30" width="150" height="30" as="geometry">
            <mxRectangle width="150" height="30" as="alternateBounds" />
          </mxGeometry>
        </mxCell>
        <mxCell id="DbLl5ZKrvp2yoWORLzQD-60" value="Dim_Sales Staff" style="shape=table;startSize=30;container=1;collapsible=1;childLayout=tableLayout;fixedRows=1;rowLines=0;fontStyle=1;align=center;resizeLast=1;html=1;fillColor=#ffe6cc;strokeColor=#d79b00;" vertex="1" parent="1">
          <mxGeometry x="968" y="340" width="180" height="150" as="geometry" />
        </mxCell>
        <mxCell id="DbLl5ZKrvp2yoWORLzQD-61" value="" style="shape=tableRow;horizontal=0;startSize=0;swimlaneHead=0;swimlaneBody=0;fillColor=none;collapsible=0;dropTarget=0;points=[[0,0.5],[1,0.5]];portConstraint=eastwest;top=0;left=0;right=0;bottom=1;" vertex="1" parent="DbLl5ZKrvp2yoWORLzQD-60">
          <mxGeometry y="30" width="180" height="30" as="geometry" />
        </mxCell>
        <mxCell id="DbLl5ZKrvp2yoWORLzQD-62" value="PK" style="shape=partialRectangle;connectable=0;fillColor=none;top=0;left=0;bottom=0;right=0;fontStyle=1;overflow=hidden;whiteSpace=wrap;html=1;" vertex="1" parent="DbLl5ZKrvp2yoWORLzQD-61">
          <mxGeometry width="30" height="30" as="geometry">
            <mxRectangle width="30" height="30" as="alternateBounds" />
          </mxGeometry>
        </mxCell>
        <mxCell id="DbLl5ZKrvp2yoWORLzQD-63" value="Sales_staff_ID" style="shape=partialRectangle;connectable=0;fillColor=none;top=0;left=0;bottom=0;right=0;align=left;spacingLeft=6;fontStyle=5;overflow=hidden;whiteSpace=wrap;html=1;" vertex="1" parent="DbLl5ZKrvp2yoWORLzQD-61">
          <mxGeometry x="30" width="150" height="30" as="geometry">
            <mxRectangle width="150" height="30" as="alternateBounds" />
          </mxGeometry>
        </mxCell>
        <mxCell id="DbLl5ZKrvp2yoWORLzQD-64" value="" style="shape=tableRow;horizontal=0;startSize=0;swimlaneHead=0;swimlaneBody=0;fillColor=none;collapsible=0;dropTarget=0;points=[[0,0.5],[1,0.5]];portConstraint=eastwest;top=0;left=0;right=0;bottom=0;" vertex="1" parent="DbLl5ZKrvp2yoWORLzQD-60">
          <mxGeometry y="60" width="180" height="30" as="geometry" />
        </mxCell>
        <mxCell id="DbLl5ZKrvp2yoWORLzQD-65" value="" style="shape=partialRectangle;connectable=0;fillColor=none;top=0;left=0;bottom=0;right=0;editable=1;overflow=hidden;whiteSpace=wrap;html=1;" vertex="1" parent="DbLl5ZKrvp2yoWORLzQD-64">
          <mxGeometry width="30" height="30" as="geometry">
            <mxRectangle width="30" height="30" as="alternateBounds" />
          </mxGeometry>
        </mxCell>
        <mxCell id="DbLl5ZKrvp2yoWORLzQD-66" value="Sales_staff_name" style="shape=partialRectangle;connectable=0;fillColor=none;top=0;left=0;bottom=0;right=0;align=left;spacingLeft=6;overflow=hidden;whiteSpace=wrap;html=1;" vertex="1" parent="DbLl5ZKrvp2yoWORLzQD-64">
          <mxGeometry x="30" width="150" height="30" as="geometry">
            <mxRectangle width="150" height="30" as="alternateBounds" />
          </mxGeometry>
        </mxCell>
        <mxCell id="DbLl5ZKrvp2yoWORLzQD-67" value="" style="shape=tableRow;horizontal=0;startSize=0;swimlaneHead=0;swimlaneBody=0;fillColor=none;collapsible=0;dropTarget=0;points=[[0,0.5],[1,0.5]];portConstraint=eastwest;top=0;left=0;right=0;bottom=0;" vertex="1" parent="DbLl5ZKrvp2yoWORLzQD-60">
          <mxGeometry y="90" width="180" height="30" as="geometry" />
        </mxCell>
        <mxCell id="DbLl5ZKrvp2yoWORLzQD-68" value="" style="shape=partialRectangle;connectable=0;fillColor=none;top=0;left=0;bottom=0;right=0;editable=1;overflow=hidden;whiteSpace=wrap;html=1;" vertex="1" parent="DbLl5ZKrvp2yoWORLzQD-67">
          <mxGeometry width="30" height="30" as="geometry">
            <mxRectangle width="30" height="30" as="alternateBounds" />
          </mxGeometry>
        </mxCell>
        <mxCell id="DbLl5ZKrvp2yoWORLzQD-69" value="Date from" style="shape=partialRectangle;connectable=0;fillColor=none;top=0;left=0;bottom=0;right=0;align=left;spacingLeft=6;overflow=hidden;whiteSpace=wrap;html=1;" vertex="1" parent="DbLl5ZKrvp2yoWORLzQD-67">
          <mxGeometry x="30" width="150" height="30" as="geometry">
            <mxRectangle width="150" height="30" as="alternateBounds" />
          </mxGeometry>
        </mxCell>
        <mxCell id="DbLl5ZKrvp2yoWORLzQD-70" value="" style="shape=tableRow;horizontal=0;startSize=0;swimlaneHead=0;swimlaneBody=0;fillColor=none;collapsible=0;dropTarget=0;points=[[0,0.5],[1,0.5]];portConstraint=eastwest;top=0;left=0;right=0;bottom=0;" vertex="1" parent="DbLl5ZKrvp2yoWORLzQD-60">
          <mxGeometry y="120" width="180" height="30" as="geometry" />
        </mxCell>
        <mxCell id="DbLl5ZKrvp2yoWORLzQD-71" value="" style="shape=partialRectangle;connectable=0;fillColor=none;top=0;left=0;bottom=0;right=0;editable=1;overflow=hidden;whiteSpace=wrap;html=1;" vertex="1" parent="DbLl5ZKrvp2yoWORLzQD-70">
          <mxGeometry width="30" height="30" as="geometry">
            <mxRectangle width="30" height="30" as="alternateBounds" />
          </mxGeometry>
        </mxCell>
        <mxCell id="DbLl5ZKrvp2yoWORLzQD-72" value="Date to" style="shape=partialRectangle;connectable=0;fillColor=none;top=0;left=0;bottom=0;right=0;align=left;spacingLeft=6;overflow=hidden;whiteSpace=wrap;html=1;" vertex="1" parent="DbLl5ZKrvp2yoWORLzQD-70">
          <mxGeometry x="30" width="150" height="30" as="geometry">
            <mxRectangle width="150" height="30" as="alternateBounds" />
          </mxGeometry>
        </mxCell>
        <mxCell id="DbLl5ZKrvp2yoWORLzQD-73" value="Dim_Promotion" style="shape=table;startSize=30;container=1;collapsible=1;childLayout=tableLayout;fixedRows=1;rowLines=0;fontStyle=1;align=center;resizeLast=1;html=1;fillColor=#ffe6cc;strokeColor=#d79b00;" vertex="1" parent="1">
          <mxGeometry x="968" y="610" width="180" height="150" as="geometry" />
        </mxCell>
        <mxCell id="DbLl5ZKrvp2yoWORLzQD-74" value="" style="shape=tableRow;horizontal=0;startSize=0;swimlaneHead=0;swimlaneBody=0;fillColor=none;collapsible=0;dropTarget=0;points=[[0,0.5],[1,0.5]];portConstraint=eastwest;top=0;left=0;right=0;bottom=1;" vertex="1" parent="DbLl5ZKrvp2yoWORLzQD-73">
          <mxGeometry y="30" width="180" height="30" as="geometry" />
        </mxCell>
        <mxCell id="DbLl5ZKrvp2yoWORLzQD-75" value="PK" style="shape=partialRectangle;connectable=0;fillColor=none;top=0;left=0;bottom=0;right=0;fontStyle=1;overflow=hidden;whiteSpace=wrap;html=1;" vertex="1" parent="DbLl5ZKrvp2yoWORLzQD-74">
          <mxGeometry width="30" height="30" as="geometry">
            <mxRectangle width="30" height="30" as="alternateBounds" />
          </mxGeometry>
        </mxCell>
        <mxCell id="DbLl5ZKrvp2yoWORLzQD-76" value="Promotion_ID" style="shape=partialRectangle;connectable=0;fillColor=none;top=0;left=0;bottom=0;right=0;align=left;spacingLeft=6;fontStyle=5;overflow=hidden;whiteSpace=wrap;html=1;" vertex="1" parent="DbLl5ZKrvp2yoWORLzQD-74">
          <mxGeometry x="30" width="150" height="30" as="geometry">
            <mxRectangle width="150" height="30" as="alternateBounds" />
          </mxGeometry>
        </mxCell>
        <mxCell id="DbLl5ZKrvp2yoWORLzQD-77" value="" style="shape=tableRow;horizontal=0;startSize=0;swimlaneHead=0;swimlaneBody=0;fillColor=none;collapsible=0;dropTarget=0;points=[[0,0.5],[1,0.5]];portConstraint=eastwest;top=0;left=0;right=0;bottom=0;" vertex="1" parent="DbLl5ZKrvp2yoWORLzQD-73">
          <mxGeometry y="60" width="180" height="30" as="geometry" />
        </mxCell>
        <mxCell id="DbLl5ZKrvp2yoWORLzQD-78" value="" style="shape=partialRectangle;connectable=0;fillColor=none;top=0;left=0;bottom=0;right=0;editable=1;overflow=hidden;whiteSpace=wrap;html=1;" vertex="1" parent="DbLl5ZKrvp2yoWORLzQD-77">
          <mxGeometry width="30" height="30" as="geometry">
            <mxRectangle width="30" height="30" as="alternateBounds" />
          </mxGeometry>
        </mxCell>
        <mxCell id="DbLl5ZKrvp2yoWORLzQD-79" value="Promotion_name" style="shape=partialRectangle;connectable=0;fillColor=none;top=0;left=0;bottom=0;right=0;align=left;spacingLeft=6;overflow=hidden;whiteSpace=wrap;html=1;" vertex="1" parent="DbLl5ZKrvp2yoWORLzQD-77">
          <mxGeometry x="30" width="150" height="30" as="geometry">
            <mxRectangle width="150" height="30" as="alternateBounds" />
          </mxGeometry>
        </mxCell>
        <mxCell id="DbLl5ZKrvp2yoWORLzQD-80" value="" style="shape=tableRow;horizontal=0;startSize=0;swimlaneHead=0;swimlaneBody=0;fillColor=none;collapsible=0;dropTarget=0;points=[[0,0.5],[1,0.5]];portConstraint=eastwest;top=0;left=0;right=0;bottom=0;" vertex="1" parent="DbLl5ZKrvp2yoWORLzQD-73">
          <mxGeometry y="90" width="180" height="30" as="geometry" />
        </mxCell>
        <mxCell id="DbLl5ZKrvp2yoWORLzQD-81" value="" style="shape=partialRectangle;connectable=0;fillColor=none;top=0;left=0;bottom=0;right=0;editable=1;overflow=hidden;whiteSpace=wrap;html=1;" vertex="1" parent="DbLl5ZKrvp2yoWORLzQD-80">
          <mxGeometry width="30" height="30" as="geometry">
            <mxRectangle width="30" height="30" as="alternateBounds" />
          </mxGeometry>
        </mxCell>
        <mxCell id="DbLl5ZKrvp2yoWORLzQD-82" value="Date from" style="shape=partialRectangle;connectable=0;fillColor=none;top=0;left=0;bottom=0;right=0;align=left;spacingLeft=6;overflow=hidden;whiteSpace=wrap;html=1;" vertex="1" parent="DbLl5ZKrvp2yoWORLzQD-80">
          <mxGeometry x="30" width="150" height="30" as="geometry">
            <mxRectangle width="150" height="30" as="alternateBounds" />
          </mxGeometry>
        </mxCell>
        <mxCell id="DbLl5ZKrvp2yoWORLzQD-83" value="" style="shape=tableRow;horizontal=0;startSize=0;swimlaneHead=0;swimlaneBody=0;fillColor=none;collapsible=0;dropTarget=0;points=[[0,0.5],[1,0.5]];portConstraint=eastwest;top=0;left=0;right=0;bottom=0;" vertex="1" parent="DbLl5ZKrvp2yoWORLzQD-73">
          <mxGeometry y="120" width="180" height="30" as="geometry" />
        </mxCell>
        <mxCell id="DbLl5ZKrvp2yoWORLzQD-84" value="" style="shape=partialRectangle;connectable=0;fillColor=none;top=0;left=0;bottom=0;right=0;editable=1;overflow=hidden;whiteSpace=wrap;html=1;" vertex="1" parent="DbLl5ZKrvp2yoWORLzQD-83">
          <mxGeometry width="30" height="30" as="geometry">
            <mxRectangle width="30" height="30" as="alternateBounds" />
          </mxGeometry>
        </mxCell>
        <mxCell id="DbLl5ZKrvp2yoWORLzQD-85" value="Date to" style="shape=partialRectangle;connectable=0;fillColor=none;top=0;left=0;bottom=0;right=0;align=left;spacingLeft=6;overflow=hidden;whiteSpace=wrap;html=1;" vertex="1" parent="DbLl5ZKrvp2yoWORLzQD-83">
          <mxGeometry x="30" width="150" height="30" as="geometry">
            <mxRectangle width="150" height="30" as="alternateBounds" />
          </mxGeometry>
        </mxCell>
        <mxCell id="DbLl5ZKrvp2yoWORLzQD-86" value="" style="edgeStyle=orthogonalEdgeStyle;rounded=0;orthogonalLoop=1;jettySize=auto;html=1;exitX=1;exitY=0.5;exitDx=0;exitDy=0;entryX=1;entryY=0.5;entryDx=0;entryDy=0;endArrow=none;startFill=0;" edge="1" parent="1" source="DbLl5ZKrvp2yoWORLzQD-99" target="DbLl5ZKrvp2yoWORLzQD-282">
          <mxGeometry relative="1" as="geometry" />
        </mxCell>
        <mxCell id="DbLl5ZKrvp2yoWORLzQD-87" value="n" style="edgeLabel;html=1;align=center;verticalAlign=middle;resizable=0;points=[];fontStyle=1" vertex="1" connectable="0" parent="DbLl5ZKrvp2yoWORLzQD-86">
          <mxGeometry x="-0.77" y="1" relative="1" as="geometry">
            <mxPoint as="offset" />
          </mxGeometry>
        </mxCell>
        <mxCell id="DbLl5ZKrvp2yoWORLzQD-88" value="1" style="edgeLabel;html=1;align=center;verticalAlign=middle;resizable=0;points=[];fontStyle=1" vertex="1" connectable="0" parent="DbLl5ZKrvp2yoWORLzQD-86">
          <mxGeometry x="0.94" y="1" relative="1" as="geometry">
            <mxPoint as="offset" />
          </mxGeometry>
        </mxCell>
        <mxCell id="DbLl5ZKrvp2yoWORLzQD-89" value="" style="edgeStyle=orthogonalEdgeStyle;rounded=0;orthogonalLoop=1;jettySize=auto;html=1;exitX=0;exitY=0.5;exitDx=0;exitDy=0;entryX=0;entryY=0.5;entryDx=0;entryDy=0;endArrow=none;startFill=0;" edge="1" parent="1" source="DbLl5ZKrvp2yoWORLzQD-102" target="DbLl5ZKrvp2yoWORLzQD-295">
          <mxGeometry relative="1" as="geometry" />
        </mxCell>
        <mxCell id="DbLl5ZKrvp2yoWORLzQD-90" value="1" style="edgeLabel;html=1;align=center;verticalAlign=middle;resizable=0;points=[];fontStyle=1" vertex="1" connectable="0" parent="DbLl5ZKrvp2yoWORLzQD-89">
          <mxGeometry x="0.8044" y="1" relative="1" as="geometry">
            <mxPoint as="offset" />
          </mxGeometry>
        </mxCell>
        <mxCell id="DbLl5ZKrvp2yoWORLzQD-91" value="n" style="edgeLabel;html=1;align=center;verticalAlign=middle;resizable=0;points=[];fontStyle=1" vertex="1" connectable="0" parent="DbLl5ZKrvp2yoWORLzQD-89">
          <mxGeometry x="-0.9156" relative="1" as="geometry">
            <mxPoint as="offset" />
          </mxGeometry>
        </mxCell>
        <mxCell id="DbLl5ZKrvp2yoWORLzQD-92" value="Dim_Store" style="shape=table;startSize=30;container=1;collapsible=1;childLayout=tableLayout;fixedRows=1;rowLines=0;fontStyle=1;align=center;resizeLast=1;html=1;fillColor=#ffe6cc;strokeColor=#d79b00;" vertex="1" parent="1">
          <mxGeometry x="358" y="500" width="180" height="270" as="geometry" />
        </mxCell>
        <mxCell id="DbLl5ZKrvp2yoWORLzQD-93" value="" style="shape=tableRow;horizontal=0;startSize=0;swimlaneHead=0;swimlaneBody=0;fillColor=none;collapsible=0;dropTarget=0;points=[[0,0.5],[1,0.5]];portConstraint=eastwest;top=0;left=0;right=0;bottom=1;" vertex="1" parent="DbLl5ZKrvp2yoWORLzQD-92">
          <mxGeometry y="30" width="180" height="30" as="geometry" />
        </mxCell>
        <mxCell id="DbLl5ZKrvp2yoWORLzQD-94" value="PK" style="shape=partialRectangle;connectable=0;fillColor=none;top=0;left=0;bottom=0;right=0;fontStyle=1;overflow=hidden;whiteSpace=wrap;html=1;" vertex="1" parent="DbLl5ZKrvp2yoWORLzQD-93">
          <mxGeometry width="30" height="30" as="geometry">
            <mxRectangle width="30" height="30" as="alternateBounds" />
          </mxGeometry>
        </mxCell>
        <mxCell id="DbLl5ZKrvp2yoWORLzQD-95" value="Store_ID" style="shape=partialRectangle;connectable=0;fillColor=none;top=0;left=0;bottom=0;right=0;align=left;spacingLeft=6;fontStyle=5;overflow=hidden;whiteSpace=wrap;html=1;" vertex="1" parent="DbLl5ZKrvp2yoWORLzQD-93">
          <mxGeometry x="30" width="150" height="30" as="geometry">
            <mxRectangle width="150" height="30" as="alternateBounds" />
          </mxGeometry>
        </mxCell>
        <mxCell id="DbLl5ZKrvp2yoWORLzQD-96" value="" style="shape=tableRow;horizontal=0;startSize=0;swimlaneHead=0;swimlaneBody=0;fillColor=none;collapsible=0;dropTarget=0;points=[[0,0.5],[1,0.5]];portConstraint=eastwest;top=0;left=0;right=0;bottom=0;" vertex="1" parent="DbLl5ZKrvp2yoWORLzQD-92">
          <mxGeometry y="60" width="180" height="30" as="geometry" />
        </mxCell>
        <mxCell id="DbLl5ZKrvp2yoWORLzQD-97" value="FK" style="shape=partialRectangle;connectable=0;fillColor=none;top=0;left=0;bottom=0;right=0;editable=1;overflow=hidden;whiteSpace=wrap;html=1;" vertex="1" parent="DbLl5ZKrvp2yoWORLzQD-96">
          <mxGeometry width="30" height="30" as="geometry">
            <mxRectangle width="30" height="30" as="alternateBounds" />
          </mxGeometry>
        </mxCell>
        <mxCell id="DbLl5ZKrvp2yoWORLzQD-98" value="District_ID" style="shape=partialRectangle;connectable=0;fillColor=none;top=0;left=0;bottom=0;right=0;align=left;spacingLeft=6;overflow=hidden;whiteSpace=wrap;html=1;" vertex="1" parent="DbLl5ZKrvp2yoWORLzQD-96">
          <mxGeometry x="30" width="150" height="30" as="geometry">
            <mxRectangle width="150" height="30" as="alternateBounds" />
          </mxGeometry>
        </mxCell>
        <mxCell id="DbLl5ZKrvp2yoWORLzQD-99" value="" style="shape=tableRow;horizontal=0;startSize=0;swimlaneHead=0;swimlaneBody=0;fillColor=none;collapsible=0;dropTarget=0;points=[[0,0.5],[1,0.5]];portConstraint=eastwest;top=0;left=0;right=0;bottom=0;" vertex="1" parent="DbLl5ZKrvp2yoWORLzQD-92">
          <mxGeometry y="90" width="180" height="30" as="geometry" />
        </mxCell>
        <mxCell id="DbLl5ZKrvp2yoWORLzQD-100" value="FK" style="shape=partialRectangle;connectable=0;fillColor=none;top=0;left=0;bottom=0;right=0;editable=1;overflow=hidden;whiteSpace=wrap;html=1;" vertex="1" parent="DbLl5ZKrvp2yoWORLzQD-99">
          <mxGeometry width="30" height="30" as="geometry">
            <mxRectangle width="30" height="30" as="alternateBounds" />
          </mxGeometry>
        </mxCell>
        <mxCell id="DbLl5ZKrvp2yoWORLzQD-101" value="Store_location_ID" style="shape=partialRectangle;connectable=0;fillColor=none;top=0;left=0;bottom=0;right=0;align=left;spacingLeft=6;overflow=hidden;whiteSpace=wrap;html=1;" vertex="1" parent="DbLl5ZKrvp2yoWORLzQD-99">
          <mxGeometry x="30" width="150" height="30" as="geometry">
            <mxRectangle width="150" height="30" as="alternateBounds" />
          </mxGeometry>
        </mxCell>
        <mxCell id="DbLl5ZKrvp2yoWORLzQD-102" value="" style="shape=tableRow;horizontal=0;startSize=0;swimlaneHead=0;swimlaneBody=0;fillColor=none;collapsible=0;dropTarget=0;points=[[0,0.5],[1,0.5]];portConstraint=eastwest;top=0;left=0;right=0;bottom=0;" vertex="1" parent="DbLl5ZKrvp2yoWORLzQD-92">
          <mxGeometry y="120" width="180" height="30" as="geometry" />
        </mxCell>
        <mxCell id="DbLl5ZKrvp2yoWORLzQD-103" value="FK" style="shape=partialRectangle;connectable=0;fillColor=none;top=0;left=0;bottom=0;right=0;editable=1;overflow=hidden;whiteSpace=wrap;html=1;" vertex="1" parent="DbLl5ZKrvp2yoWORLzQD-102">
          <mxGeometry width="30" height="30" as="geometry">
            <mxRectangle width="30" height="30" as="alternateBounds" />
          </mxGeometry>
        </mxCell>
        <mxCell id="DbLl5ZKrvp2yoWORLzQD-104" value="Store_type_ID" style="shape=partialRectangle;connectable=0;fillColor=none;top=0;left=0;bottom=0;right=0;align=left;spacingLeft=6;overflow=hidden;whiteSpace=wrap;html=1;" vertex="1" parent="DbLl5ZKrvp2yoWORLzQD-102">
          <mxGeometry x="30" width="150" height="30" as="geometry">
            <mxRectangle width="150" height="30" as="alternateBounds" />
          </mxGeometry>
        </mxCell>
        <mxCell id="DbLl5ZKrvp2yoWORLzQD-105" value="" style="shape=tableRow;horizontal=0;startSize=0;swimlaneHead=0;swimlaneBody=0;fillColor=none;collapsible=0;dropTarget=0;points=[[0,0.5],[1,0.5]];portConstraint=eastwest;top=0;left=0;right=0;bottom=0;" vertex="1" parent="DbLl5ZKrvp2yoWORLzQD-92">
          <mxGeometry y="150" width="180" height="30" as="geometry" />
        </mxCell>
        <mxCell id="DbLl5ZKrvp2yoWORLzQD-106" value="" style="shape=partialRectangle;connectable=0;fillColor=none;top=0;left=0;bottom=0;right=0;editable=1;overflow=hidden;whiteSpace=wrap;html=1;" vertex="1" parent="DbLl5ZKrvp2yoWORLzQD-105">
          <mxGeometry width="30" height="30" as="geometry">
            <mxRectangle width="30" height="30" as="alternateBounds" />
          </mxGeometry>
        </mxCell>
        <mxCell id="DbLl5ZKrvp2yoWORLzQD-107" value="Store_name" style="shape=partialRectangle;connectable=0;fillColor=none;top=0;left=0;bottom=0;right=0;align=left;spacingLeft=6;overflow=hidden;whiteSpace=wrap;html=1;" vertex="1" parent="DbLl5ZKrvp2yoWORLzQD-105">
          <mxGeometry x="30" width="150" height="30" as="geometry">
            <mxRectangle width="150" height="30" as="alternateBounds" />
          </mxGeometry>
        </mxCell>
        <mxCell id="DbLl5ZKrvp2yoWORLzQD-108" value="" style="shape=tableRow;horizontal=0;startSize=0;swimlaneHead=0;swimlaneBody=0;fillColor=none;collapsible=0;dropTarget=0;points=[[0,0.5],[1,0.5]];portConstraint=eastwest;top=0;left=0;right=0;bottom=0;" vertex="1" parent="DbLl5ZKrvp2yoWORLzQD-92">
          <mxGeometry y="180" width="180" height="30" as="geometry" />
        </mxCell>
        <mxCell id="DbLl5ZKrvp2yoWORLzQD-109" value="" style="shape=partialRectangle;connectable=0;fillColor=none;top=0;left=0;bottom=0;right=0;editable=1;overflow=hidden;whiteSpace=wrap;html=1;" vertex="1" parent="DbLl5ZKrvp2yoWORLzQD-108">
          <mxGeometry width="30" height="30" as="geometry">
            <mxRectangle width="30" height="30" as="alternateBounds" />
          </mxGeometry>
        </mxCell>
        <mxCell id="DbLl5ZKrvp2yoWORLzQD-110" value="Store_size_sqm" style="shape=partialRectangle;connectable=0;fillColor=none;top=0;left=0;bottom=0;right=0;align=left;spacingLeft=6;overflow=hidden;whiteSpace=wrap;html=1;" vertex="1" parent="DbLl5ZKrvp2yoWORLzQD-108">
          <mxGeometry x="30" width="150" height="30" as="geometry">
            <mxRectangle width="150" height="30" as="alternateBounds" />
          </mxGeometry>
        </mxCell>
        <mxCell id="DbLl5ZKrvp2yoWORLzQD-111" value="" style="shape=tableRow;horizontal=0;startSize=0;swimlaneHead=0;swimlaneBody=0;fillColor=none;collapsible=0;dropTarget=0;points=[[0,0.5],[1,0.5]];portConstraint=eastwest;top=0;left=0;right=0;bottom=0;" vertex="1" parent="DbLl5ZKrvp2yoWORLzQD-92">
          <mxGeometry y="210" width="180" height="30" as="geometry" />
        </mxCell>
        <mxCell id="DbLl5ZKrvp2yoWORLzQD-112" value="" style="shape=partialRectangle;connectable=0;fillColor=none;top=0;left=0;bottom=0;right=0;editable=1;overflow=hidden;whiteSpace=wrap;html=1;" vertex="1" parent="DbLl5ZKrvp2yoWORLzQD-111">
          <mxGeometry width="30" height="30" as="geometry">
            <mxRectangle width="30" height="30" as="alternateBounds" />
          </mxGeometry>
        </mxCell>
        <mxCell id="DbLl5ZKrvp2yoWORLzQD-113" value="Date from" style="shape=partialRectangle;connectable=0;fillColor=none;top=0;left=0;bottom=0;right=0;align=left;spacingLeft=6;overflow=hidden;whiteSpace=wrap;html=1;" vertex="1" parent="DbLl5ZKrvp2yoWORLzQD-111">
          <mxGeometry x="30" width="150" height="30" as="geometry">
            <mxRectangle width="150" height="30" as="alternateBounds" />
          </mxGeometry>
        </mxCell>
        <mxCell id="DbLl5ZKrvp2yoWORLzQD-114" value="" style="shape=tableRow;horizontal=0;startSize=0;swimlaneHead=0;swimlaneBody=0;fillColor=none;collapsible=0;dropTarget=0;points=[[0,0.5],[1,0.5]];portConstraint=eastwest;top=0;left=0;right=0;bottom=0;" vertex="1" parent="DbLl5ZKrvp2yoWORLzQD-92">
          <mxGeometry y="240" width="180" height="30" as="geometry" />
        </mxCell>
        <mxCell id="DbLl5ZKrvp2yoWORLzQD-115" value="" style="shape=partialRectangle;connectable=0;fillColor=none;top=0;left=0;bottom=0;right=0;editable=1;overflow=hidden;whiteSpace=wrap;html=1;" vertex="1" parent="DbLl5ZKrvp2yoWORLzQD-114">
          <mxGeometry width="30" height="30" as="geometry">
            <mxRectangle width="30" height="30" as="alternateBounds" />
          </mxGeometry>
        </mxCell>
        <mxCell id="DbLl5ZKrvp2yoWORLzQD-116" value="Date to" style="shape=partialRectangle;connectable=0;fillColor=none;top=0;left=0;bottom=0;right=0;align=left;spacingLeft=6;overflow=hidden;whiteSpace=wrap;html=1;" vertex="1" parent="DbLl5ZKrvp2yoWORLzQD-114">
          <mxGeometry x="30" width="150" height="30" as="geometry">
            <mxRectangle width="150" height="30" as="alternateBounds" />
          </mxGeometry>
        </mxCell>
        <mxCell id="DbLl5ZKrvp2yoWORLzQD-117" value="Dim_Supplier" style="shape=table;startSize=30;container=1;collapsible=1;childLayout=tableLayout;fixedRows=1;rowLines=0;fontStyle=1;align=center;resizeLast=1;html=1;fillColor=#ffe6cc;strokeColor=#d79b00;" vertex="1" parent="1">
          <mxGeometry x="358" y="20" width="180" height="150" as="geometry" />
        </mxCell>
        <mxCell id="DbLl5ZKrvp2yoWORLzQD-118" value="" style="shape=tableRow;horizontal=0;startSize=0;swimlaneHead=0;swimlaneBody=0;fillColor=none;collapsible=0;dropTarget=0;points=[[0,0.5],[1,0.5]];portConstraint=eastwest;top=0;left=0;right=0;bottom=1;" vertex="1" parent="DbLl5ZKrvp2yoWORLzQD-117">
          <mxGeometry y="30" width="180" height="30" as="geometry" />
        </mxCell>
        <mxCell id="DbLl5ZKrvp2yoWORLzQD-119" value="PK" style="shape=partialRectangle;connectable=0;fillColor=none;top=0;left=0;bottom=0;right=0;fontStyle=1;overflow=hidden;whiteSpace=wrap;html=1;" vertex="1" parent="DbLl5ZKrvp2yoWORLzQD-118">
          <mxGeometry width="30" height="30" as="geometry">
            <mxRectangle width="30" height="30" as="alternateBounds" />
          </mxGeometry>
        </mxCell>
        <mxCell id="DbLl5ZKrvp2yoWORLzQD-120" value="Supplier_ID" style="shape=partialRectangle;connectable=0;fillColor=none;top=0;left=0;bottom=0;right=0;align=left;spacingLeft=6;fontStyle=5;overflow=hidden;whiteSpace=wrap;html=1;" vertex="1" parent="DbLl5ZKrvp2yoWORLzQD-118">
          <mxGeometry x="30" width="150" height="30" as="geometry">
            <mxRectangle width="150" height="30" as="alternateBounds" />
          </mxGeometry>
        </mxCell>
        <mxCell id="DbLl5ZKrvp2yoWORLzQD-121" value="" style="shape=tableRow;horizontal=0;startSize=0;swimlaneHead=0;swimlaneBody=0;fillColor=none;collapsible=0;dropTarget=0;points=[[0,0.5],[1,0.5]];portConstraint=eastwest;top=0;left=0;right=0;bottom=0;" vertex="1" parent="DbLl5ZKrvp2yoWORLzQD-117">
          <mxGeometry y="60" width="180" height="30" as="geometry" />
        </mxCell>
        <mxCell id="DbLl5ZKrvp2yoWORLzQD-122" value="" style="shape=partialRectangle;connectable=0;fillColor=none;top=0;left=0;bottom=0;right=0;editable=1;overflow=hidden;whiteSpace=wrap;html=1;" vertex="1" parent="DbLl5ZKrvp2yoWORLzQD-121">
          <mxGeometry width="30" height="30" as="geometry">
            <mxRectangle width="30" height="30" as="alternateBounds" />
          </mxGeometry>
        </mxCell>
        <mxCell id="DbLl5ZKrvp2yoWORLzQD-123" value="Supplier_name" style="shape=partialRectangle;connectable=0;fillColor=none;top=0;left=0;bottom=0;right=0;align=left;spacingLeft=6;overflow=hidden;whiteSpace=wrap;html=1;" vertex="1" parent="DbLl5ZKrvp2yoWORLzQD-121">
          <mxGeometry x="30" width="150" height="30" as="geometry">
            <mxRectangle width="150" height="30" as="alternateBounds" />
          </mxGeometry>
        </mxCell>
        <mxCell id="DbLl5ZKrvp2yoWORLzQD-124" value="" style="shape=tableRow;horizontal=0;startSize=0;swimlaneHead=0;swimlaneBody=0;fillColor=none;collapsible=0;dropTarget=0;points=[[0,0.5],[1,0.5]];portConstraint=eastwest;top=0;left=0;right=0;bottom=0;" vertex="1" parent="DbLl5ZKrvp2yoWORLzQD-117">
          <mxGeometry y="90" width="180" height="30" as="geometry" />
        </mxCell>
        <mxCell id="DbLl5ZKrvp2yoWORLzQD-125" value="" style="shape=partialRectangle;connectable=0;fillColor=none;top=0;left=0;bottom=0;right=0;editable=1;overflow=hidden;whiteSpace=wrap;html=1;" vertex="1" parent="DbLl5ZKrvp2yoWORLzQD-124">
          <mxGeometry width="30" height="30" as="geometry">
            <mxRectangle width="30" height="30" as="alternateBounds" />
          </mxGeometry>
        </mxCell>
        <mxCell id="DbLl5ZKrvp2yoWORLzQD-126" value="Date from" style="shape=partialRectangle;connectable=0;fillColor=none;top=0;left=0;bottom=0;right=0;align=left;spacingLeft=6;overflow=hidden;whiteSpace=wrap;html=1;" vertex="1" parent="DbLl5ZKrvp2yoWORLzQD-124">
          <mxGeometry x="30" width="150" height="30" as="geometry">
            <mxRectangle width="150" height="30" as="alternateBounds" />
          </mxGeometry>
        </mxCell>
        <mxCell id="DbLl5ZKrvp2yoWORLzQD-127" value="" style="shape=tableRow;horizontal=0;startSize=0;swimlaneHead=0;swimlaneBody=0;fillColor=none;collapsible=0;dropTarget=0;points=[[0,0.5],[1,0.5]];portConstraint=eastwest;top=0;left=0;right=0;bottom=0;" vertex="1" parent="DbLl5ZKrvp2yoWORLzQD-117">
          <mxGeometry y="120" width="180" height="30" as="geometry" />
        </mxCell>
        <mxCell id="DbLl5ZKrvp2yoWORLzQD-128" value="" style="shape=partialRectangle;connectable=0;fillColor=none;top=0;left=0;bottom=0;right=0;editable=1;overflow=hidden;whiteSpace=wrap;html=1;" vertex="1" parent="DbLl5ZKrvp2yoWORLzQD-127">
          <mxGeometry width="30" height="30" as="geometry">
            <mxRectangle width="30" height="30" as="alternateBounds" />
          </mxGeometry>
        </mxCell>
        <mxCell id="DbLl5ZKrvp2yoWORLzQD-129" value="Date to" style="shape=partialRectangle;connectable=0;fillColor=none;top=0;left=0;bottom=0;right=0;align=left;spacingLeft=6;overflow=hidden;whiteSpace=wrap;html=1;" vertex="1" parent="DbLl5ZKrvp2yoWORLzQD-127">
          <mxGeometry x="30" width="150" height="30" as="geometry">
            <mxRectangle width="150" height="30" as="alternateBounds" />
          </mxGeometry>
        </mxCell>
        <mxCell id="DbLl5ZKrvp2yoWORLzQD-130" value="Facts_Transaction" style="shape=table;startSize=30;container=1;collapsible=1;childLayout=tableLayout;fixedRows=1;rowLines=0;fontStyle=1;align=center;resizeLast=1;html=1;fillColor=#e1d5e7;strokeColor=#9673a6;" vertex="1" parent="1">
          <mxGeometry x="678" y="110" width="180" height="630" as="geometry" />
        </mxCell>
        <mxCell id="DbLl5ZKrvp2yoWORLzQD-131" value="" style="shape=tableRow;horizontal=0;startSize=0;swimlaneHead=0;swimlaneBody=0;fillColor=none;collapsible=0;dropTarget=0;points=[[0,0.5],[1,0.5]];portConstraint=eastwest;top=0;left=0;right=0;bottom=1;" vertex="1" parent="DbLl5ZKrvp2yoWORLzQD-130">
          <mxGeometry y="30" width="180" height="30" as="geometry" />
        </mxCell>
        <mxCell id="DbLl5ZKrvp2yoWORLzQD-132" value="PK" style="shape=partialRectangle;connectable=0;fillColor=none;top=0;left=0;bottom=0;right=0;fontStyle=1;overflow=hidden;whiteSpace=wrap;html=1;" vertex="1" parent="DbLl5ZKrvp2yoWORLzQD-131">
          <mxGeometry width="30" height="30" as="geometry">
            <mxRectangle width="30" height="30" as="alternateBounds" />
          </mxGeometry>
        </mxCell>
        <mxCell id="DbLl5ZKrvp2yoWORLzQD-133" value="Transaction_ID" style="shape=partialRectangle;connectable=0;fillColor=none;top=0;left=0;bottom=0;right=0;align=left;spacingLeft=6;fontStyle=5;overflow=hidden;whiteSpace=wrap;html=1;" vertex="1" parent="DbLl5ZKrvp2yoWORLzQD-131">
          <mxGeometry x="30" width="150" height="30" as="geometry">
            <mxRectangle width="150" height="30" as="alternateBounds" />
          </mxGeometry>
        </mxCell>
        <mxCell id="DbLl5ZKrvp2yoWORLzQD-134" value="" style="shape=tableRow;horizontal=0;startSize=0;swimlaneHead=0;swimlaneBody=0;fillColor=none;collapsible=0;dropTarget=0;points=[[0,0.5],[1,0.5]];portConstraint=eastwest;top=0;left=0;right=0;bottom=0;" vertex="1" parent="DbLl5ZKrvp2yoWORLzQD-130">
          <mxGeometry y="60" width="180" height="30" as="geometry" />
        </mxCell>
        <mxCell id="DbLl5ZKrvp2yoWORLzQD-135" value="FK" style="shape=partialRectangle;connectable=0;fillColor=none;top=0;left=0;bottom=0;right=0;editable=1;overflow=hidden;whiteSpace=wrap;html=1;" vertex="1" parent="DbLl5ZKrvp2yoWORLzQD-134">
          <mxGeometry width="30" height="30" as="geometry">
            <mxRectangle width="30" height="30" as="alternateBounds" />
          </mxGeometry>
        </mxCell>
        <mxCell id="DbLl5ZKrvp2yoWORLzQD-136" value="Supplier_ID" style="shape=partialRectangle;connectable=0;fillColor=none;top=0;left=0;bottom=0;right=0;align=left;spacingLeft=6;overflow=hidden;whiteSpace=wrap;html=1;" vertex="1" parent="DbLl5ZKrvp2yoWORLzQD-134">
          <mxGeometry x="30" width="150" height="30" as="geometry">
            <mxRectangle width="150" height="30" as="alternateBounds" />
          </mxGeometry>
        </mxCell>
        <mxCell id="DbLl5ZKrvp2yoWORLzQD-137" value="" style="shape=tableRow;horizontal=0;startSize=0;swimlaneHead=0;swimlaneBody=0;fillColor=none;collapsible=0;dropTarget=0;points=[[0,0.5],[1,0.5]];portConstraint=eastwest;top=0;left=0;right=0;bottom=0;" vertex="1" parent="DbLl5ZKrvp2yoWORLzQD-130">
          <mxGeometry y="90" width="180" height="30" as="geometry" />
        </mxCell>
        <mxCell id="DbLl5ZKrvp2yoWORLzQD-138" value="FK" style="shape=partialRectangle;connectable=0;fillColor=none;top=0;left=0;bottom=0;right=0;editable=1;overflow=hidden;whiteSpace=wrap;html=1;" vertex="1" parent="DbLl5ZKrvp2yoWORLzQD-137">
          <mxGeometry width="30" height="30" as="geometry">
            <mxRectangle width="30" height="30" as="alternateBounds" />
          </mxGeometry>
        </mxCell>
        <mxCell id="DbLl5ZKrvp2yoWORLzQD-139" value="Product_ID" style="shape=partialRectangle;connectable=0;fillColor=none;top=0;left=0;bottom=0;right=0;align=left;spacingLeft=6;overflow=hidden;whiteSpace=wrap;html=1;" vertex="1" parent="DbLl5ZKrvp2yoWORLzQD-137">
          <mxGeometry x="30" width="150" height="30" as="geometry">
            <mxRectangle width="150" height="30" as="alternateBounds" />
          </mxGeometry>
        </mxCell>
        <mxCell id="DbLl5ZKrvp2yoWORLzQD-140" value="" style="shape=tableRow;horizontal=0;startSize=0;swimlaneHead=0;swimlaneBody=0;fillColor=none;collapsible=0;dropTarget=0;points=[[0,0.5],[1,0.5]];portConstraint=eastwest;top=0;left=0;right=0;bottom=0;" vertex="1" parent="DbLl5ZKrvp2yoWORLzQD-130">
          <mxGeometry y="120" width="180" height="30" as="geometry" />
        </mxCell>
        <mxCell id="DbLl5ZKrvp2yoWORLzQD-141" value="FK" style="shape=partialRectangle;connectable=0;fillColor=none;top=0;left=0;bottom=0;right=0;editable=1;overflow=hidden;whiteSpace=wrap;html=1;" vertex="1" parent="DbLl5ZKrvp2yoWORLzQD-140">
          <mxGeometry width="30" height="30" as="geometry">
            <mxRectangle width="30" height="30" as="alternateBounds" />
          </mxGeometry>
        </mxCell>
        <mxCell id="DbLl5ZKrvp2yoWORLzQD-142" value="Store_ID" style="shape=partialRectangle;connectable=0;fillColor=none;top=0;left=0;bottom=0;right=0;align=left;spacingLeft=6;overflow=hidden;whiteSpace=wrap;html=1;" vertex="1" parent="DbLl5ZKrvp2yoWORLzQD-140">
          <mxGeometry x="30" width="150" height="30" as="geometry">
            <mxRectangle width="150" height="30" as="alternateBounds" />
          </mxGeometry>
        </mxCell>
        <mxCell id="DbLl5ZKrvp2yoWORLzQD-143" value="" style="shape=tableRow;horizontal=0;startSize=0;swimlaneHead=0;swimlaneBody=0;fillColor=none;collapsible=0;dropTarget=0;points=[[0,0.5],[1,0.5]];portConstraint=eastwest;top=0;left=0;right=0;bottom=0;" vertex="1" parent="DbLl5ZKrvp2yoWORLzQD-130">
          <mxGeometry y="150" width="180" height="30" as="geometry" />
        </mxCell>
        <mxCell id="DbLl5ZKrvp2yoWORLzQD-144" value="FK" style="shape=partialRectangle;connectable=0;fillColor=none;top=0;left=0;bottom=0;right=0;editable=1;overflow=hidden;whiteSpace=wrap;html=1;" vertex="1" parent="DbLl5ZKrvp2yoWORLzQD-143">
          <mxGeometry width="30" height="30" as="geometry">
            <mxRectangle width="30" height="30" as="alternateBounds" />
          </mxGeometry>
        </mxCell>
        <mxCell id="DbLl5ZKrvp2yoWORLzQD-145" value="Customer_ID" style="shape=partialRectangle;connectable=0;fillColor=none;top=0;left=0;bottom=0;right=0;align=left;spacingLeft=6;overflow=hidden;whiteSpace=wrap;html=1;" vertex="1" parent="DbLl5ZKrvp2yoWORLzQD-143">
          <mxGeometry x="30" width="150" height="30" as="geometry">
            <mxRectangle width="150" height="30" as="alternateBounds" />
          </mxGeometry>
        </mxCell>
        <mxCell id="DbLl5ZKrvp2yoWORLzQD-146" value="" style="shape=tableRow;horizontal=0;startSize=0;swimlaneHead=0;swimlaneBody=0;fillColor=none;collapsible=0;dropTarget=0;points=[[0,0.5],[1,0.5]];portConstraint=eastwest;top=0;left=0;right=0;bottom=0;" vertex="1" parent="DbLl5ZKrvp2yoWORLzQD-130">
          <mxGeometry y="180" width="180" height="30" as="geometry" />
        </mxCell>
        <mxCell id="DbLl5ZKrvp2yoWORLzQD-147" value="FK" style="shape=partialRectangle;connectable=0;fillColor=none;top=0;left=0;bottom=0;right=0;editable=1;overflow=hidden;whiteSpace=wrap;html=1;" vertex="1" parent="DbLl5ZKrvp2yoWORLzQD-146">
          <mxGeometry width="30" height="30" as="geometry">
            <mxRectangle width="30" height="30" as="alternateBounds" />
          </mxGeometry>
        </mxCell>
        <mxCell id="DbLl5ZKrvp2yoWORLzQD-148" value="Sales_Staff_ID" style="shape=partialRectangle;connectable=0;fillColor=none;top=0;left=0;bottom=0;right=0;align=left;spacingLeft=6;overflow=hidden;whiteSpace=wrap;html=1;" vertex="1" parent="DbLl5ZKrvp2yoWORLzQD-146">
          <mxGeometry x="30" width="150" height="30" as="geometry">
            <mxRectangle width="150" height="30" as="alternateBounds" />
          </mxGeometry>
        </mxCell>
        <mxCell id="DbLl5ZKrvp2yoWORLzQD-149" value="" style="shape=tableRow;horizontal=0;startSize=0;swimlaneHead=0;swimlaneBody=0;fillColor=none;collapsible=0;dropTarget=0;points=[[0,0.5],[1,0.5]];portConstraint=eastwest;top=0;left=0;right=0;bottom=0;" vertex="1" parent="DbLl5ZKrvp2yoWORLzQD-130">
          <mxGeometry y="210" width="180" height="30" as="geometry" />
        </mxCell>
        <mxCell id="DbLl5ZKrvp2yoWORLzQD-150" value="FK" style="shape=partialRectangle;connectable=0;fillColor=none;top=0;left=0;bottom=0;right=0;editable=1;overflow=hidden;whiteSpace=wrap;html=1;" vertex="1" parent="DbLl5ZKrvp2yoWORLzQD-149">
          <mxGeometry width="30" height="30" as="geometry">
            <mxRectangle width="30" height="30" as="alternateBounds" />
          </mxGeometry>
        </mxCell>
        <mxCell id="DbLl5ZKrvp2yoWORLzQD-151" value="Promotion_ID" style="shape=partialRectangle;connectable=0;fillColor=none;top=0;left=0;bottom=0;right=0;align=left;spacingLeft=6;overflow=hidden;whiteSpace=wrap;html=1;" vertex="1" parent="DbLl5ZKrvp2yoWORLzQD-149">
          <mxGeometry x="30" width="150" height="30" as="geometry">
            <mxRectangle width="150" height="30" as="alternateBounds" />
          </mxGeometry>
        </mxCell>
        <mxCell id="DbLl5ZKrvp2yoWORLzQD-152" value="" style="shape=tableRow;horizontal=0;startSize=0;swimlaneHead=0;swimlaneBody=0;fillColor=none;collapsible=0;dropTarget=0;points=[[0,0.5],[1,0.5]];portConstraint=eastwest;top=0;left=0;right=0;bottom=0;" vertex="1" parent="DbLl5ZKrvp2yoWORLzQD-130">
          <mxGeometry y="240" width="180" height="30" as="geometry" />
        </mxCell>
        <mxCell id="DbLl5ZKrvp2yoWORLzQD-153" value="FK" style="shape=partialRectangle;connectable=0;fillColor=none;top=0;left=0;bottom=0;right=0;editable=1;overflow=hidden;whiteSpace=wrap;html=1;" vertex="1" parent="DbLl5ZKrvp2yoWORLzQD-152">
          <mxGeometry width="30" height="30" as="geometry">
            <mxRectangle width="30" height="30" as="alternateBounds" />
          </mxGeometry>
        </mxCell>
        <mxCell id="DbLl5ZKrvp2yoWORLzQD-154" value="Payment_method_ID" style="shape=partialRectangle;connectable=0;fillColor=none;top=0;left=0;bottom=0;right=0;align=left;spacingLeft=6;overflow=hidden;whiteSpace=wrap;html=1;" vertex="1" parent="DbLl5ZKrvp2yoWORLzQD-152">
          <mxGeometry x="30" width="150" height="30" as="geometry">
            <mxRectangle width="150" height="30" as="alternateBounds" />
          </mxGeometry>
        </mxCell>
        <mxCell id="DbLl5ZKrvp2yoWORLzQD-155" value="" style="shape=tableRow;horizontal=0;startSize=0;swimlaneHead=0;swimlaneBody=0;fillColor=none;collapsible=0;dropTarget=0;points=[[0,0.5],[1,0.5]];portConstraint=eastwest;top=0;left=0;right=0;bottom=0;" vertex="1" parent="DbLl5ZKrvp2yoWORLzQD-130">
          <mxGeometry y="270" width="180" height="30" as="geometry" />
        </mxCell>
        <mxCell id="DbLl5ZKrvp2yoWORLzQD-156" value="" style="shape=partialRectangle;connectable=0;fillColor=none;top=0;left=0;bottom=0;right=0;editable=1;overflow=hidden;whiteSpace=wrap;html=1;" vertex="1" parent="DbLl5ZKrvp2yoWORLzQD-155">
          <mxGeometry width="30" height="30" as="geometry">
            <mxRectangle width="30" height="30" as="alternateBounds" />
          </mxGeometry>
        </mxCell>
        <mxCell id="DbLl5ZKrvp2yoWORLzQD-157" value="Invoice_number" style="shape=partialRectangle;connectable=0;fillColor=none;top=0;left=0;bottom=0;right=0;align=left;spacingLeft=6;overflow=hidden;whiteSpace=wrap;html=1;" vertex="1" parent="DbLl5ZKrvp2yoWORLzQD-155">
          <mxGeometry x="30" width="150" height="30" as="geometry">
            <mxRectangle width="150" height="30" as="alternateBounds" />
          </mxGeometry>
        </mxCell>
        <mxCell id="DbLl5ZKrvp2yoWORLzQD-158" value="" style="shape=tableRow;horizontal=0;startSize=0;swimlaneHead=0;swimlaneBody=0;fillColor=none;collapsible=0;dropTarget=0;points=[[0,0.5],[1,0.5]];portConstraint=eastwest;top=0;left=0;right=0;bottom=0;" vertex="1" parent="DbLl5ZKrvp2yoWORLzQD-130">
          <mxGeometry y="300" width="180" height="30" as="geometry" />
        </mxCell>
        <mxCell id="DbLl5ZKrvp2yoWORLzQD-159" value="" style="shape=partialRectangle;connectable=0;fillColor=none;top=0;left=0;bottom=0;right=0;editable=1;overflow=hidden;whiteSpace=wrap;html=1;" vertex="1" parent="DbLl5ZKrvp2yoWORLzQD-158">
          <mxGeometry width="30" height="30" as="geometry">
            <mxRectangle width="30" height="30" as="alternateBounds" />
          </mxGeometry>
        </mxCell>
        <mxCell id="DbLl5ZKrvp2yoWORLzQD-160" value="Transaction_date" style="shape=partialRectangle;connectable=0;fillColor=none;top=0;left=0;bottom=0;right=0;align=left;spacingLeft=6;overflow=hidden;whiteSpace=wrap;html=1;" vertex="1" parent="DbLl5ZKrvp2yoWORLzQD-158">
          <mxGeometry x="30" width="150" height="30" as="geometry">
            <mxRectangle width="150" height="30" as="alternateBounds" />
          </mxGeometry>
        </mxCell>
        <mxCell id="DbLl5ZKrvp2yoWORLzQD-161" value="" style="shape=tableRow;horizontal=0;startSize=0;swimlaneHead=0;swimlaneBody=0;fillColor=none;collapsible=0;dropTarget=0;points=[[0,0.5],[1,0.5]];portConstraint=eastwest;top=0;left=0;right=0;bottom=0;" vertex="1" parent="DbLl5ZKrvp2yoWORLzQD-130">
          <mxGeometry y="330" width="180" height="30" as="geometry" />
        </mxCell>
        <mxCell id="DbLl5ZKrvp2yoWORLzQD-162" value="" style="shape=partialRectangle;connectable=0;fillColor=none;top=0;left=0;bottom=0;right=0;editable=1;overflow=hidden;whiteSpace=wrap;html=1;" vertex="1" parent="DbLl5ZKrvp2yoWORLzQD-161">
          <mxGeometry width="30" height="30" as="geometry">
            <mxRectangle width="30" height="30" as="alternateBounds" />
          </mxGeometry>
        </mxCell>
        <mxCell id="DbLl5ZKrvp2yoWORLzQD-163" value="Transaction_time" style="shape=partialRectangle;connectable=0;fillColor=none;top=0;left=0;bottom=0;right=0;align=left;spacingLeft=6;overflow=hidden;whiteSpace=wrap;html=1;" vertex="1" parent="DbLl5ZKrvp2yoWORLzQD-161">
          <mxGeometry x="30" width="150" height="30" as="geometry">
            <mxRectangle width="150" height="30" as="alternateBounds" />
          </mxGeometry>
        </mxCell>
        <mxCell id="DbLl5ZKrvp2yoWORLzQD-164" value="" style="shape=tableRow;horizontal=0;startSize=0;swimlaneHead=0;swimlaneBody=0;fillColor=none;collapsible=0;dropTarget=0;points=[[0,0.5],[1,0.5]];portConstraint=eastwest;top=0;left=0;right=0;bottom=0;" vertex="1" parent="DbLl5ZKrvp2yoWORLzQD-130">
          <mxGeometry y="360" width="180" height="30" as="geometry" />
        </mxCell>
        <mxCell id="DbLl5ZKrvp2yoWORLzQD-165" value="" style="shape=partialRectangle;connectable=0;fillColor=none;top=0;left=0;bottom=0;right=0;editable=1;overflow=hidden;whiteSpace=wrap;html=1;" vertex="1" parent="DbLl5ZKrvp2yoWORLzQD-164">
          <mxGeometry width="30" height="30" as="geometry">
            <mxRectangle width="30" height="30" as="alternateBounds" />
          </mxGeometry>
        </mxCell>
        <mxCell id="DbLl5ZKrvp2yoWORLzQD-166" value="Transaction_status" style="shape=partialRectangle;connectable=0;fillColor=none;top=0;left=0;bottom=0;right=0;align=left;spacingLeft=6;overflow=hidden;whiteSpace=wrap;html=1;" vertex="1" parent="DbLl5ZKrvp2yoWORLzQD-164">
          <mxGeometry x="30" width="150" height="30" as="geometry">
            <mxRectangle width="150" height="30" as="alternateBounds" />
          </mxGeometry>
        </mxCell>
        <mxCell id="DbLl5ZKrvp2yoWORLzQD-167" value="" style="shape=tableRow;horizontal=0;startSize=0;swimlaneHead=0;swimlaneBody=0;fillColor=none;collapsible=0;dropTarget=0;points=[[0,0.5],[1,0.5]];portConstraint=eastwest;top=0;left=0;right=0;bottom=0;" vertex="1" parent="DbLl5ZKrvp2yoWORLzQD-130">
          <mxGeometry y="390" width="180" height="30" as="geometry" />
        </mxCell>
        <mxCell id="DbLl5ZKrvp2yoWORLzQD-168" value="" style="shape=partialRectangle;connectable=0;fillColor=none;top=0;left=0;bottom=0;right=0;editable=1;overflow=hidden;whiteSpace=wrap;html=1;" vertex="1" parent="DbLl5ZKrvp2yoWORLzQD-167">
          <mxGeometry width="30" height="30" as="geometry">
            <mxRectangle width="30" height="30" as="alternateBounds" />
          </mxGeometry>
        </mxCell>
        <mxCell id="DbLl5ZKrvp2yoWORLzQD-169" value="quantity" style="shape=partialRectangle;connectable=0;fillColor=none;top=0;left=0;bottom=0;right=0;align=left;spacingLeft=6;overflow=hidden;whiteSpace=wrap;html=1;" vertex="1" parent="DbLl5ZKrvp2yoWORLzQD-167">
          <mxGeometry x="30" width="150" height="30" as="geometry">
            <mxRectangle width="150" height="30" as="alternateBounds" />
          </mxGeometry>
        </mxCell>
        <mxCell id="DbLl5ZKrvp2yoWORLzQD-170" value="" style="shape=tableRow;horizontal=0;startSize=0;swimlaneHead=0;swimlaneBody=0;fillColor=none;collapsible=0;dropTarget=0;points=[[0,0.5],[1,0.5]];portConstraint=eastwest;top=0;left=0;right=0;bottom=0;" vertex="1" parent="DbLl5ZKrvp2yoWORLzQD-130">
          <mxGeometry y="420" width="180" height="30" as="geometry" />
        </mxCell>
        <mxCell id="DbLl5ZKrvp2yoWORLzQD-171" value="" style="shape=partialRectangle;connectable=0;fillColor=none;top=0;left=0;bottom=0;right=0;editable=1;overflow=hidden;whiteSpace=wrap;html=1;" vertex="1" parent="DbLl5ZKrvp2yoWORLzQD-170">
          <mxGeometry width="30" height="30" as="geometry">
            <mxRectangle width="30" height="30" as="alternateBounds" />
          </mxGeometry>
        </mxCell>
        <mxCell id="DbLl5ZKrvp2yoWORLzQD-172" value="unit_price" style="shape=partialRectangle;connectable=0;fillColor=none;top=0;left=0;bottom=0;right=0;align=left;spacingLeft=6;overflow=hidden;whiteSpace=wrap;html=1;" vertex="1" parent="DbLl5ZKrvp2yoWORLzQD-170">
          <mxGeometry x="30" width="150" height="30" as="geometry">
            <mxRectangle width="150" height="30" as="alternateBounds" />
          </mxGeometry>
        </mxCell>
        <mxCell id="DbLl5ZKrvp2yoWORLzQD-173" value="" style="shape=tableRow;horizontal=0;startSize=0;swimlaneHead=0;swimlaneBody=0;fillColor=none;collapsible=0;dropTarget=0;points=[[0,0.5],[1,0.5]];portConstraint=eastwest;top=0;left=0;right=0;bottom=0;" vertex="1" parent="DbLl5ZKrvp2yoWORLzQD-130">
          <mxGeometry y="450" width="180" height="30" as="geometry" />
        </mxCell>
        <mxCell id="DbLl5ZKrvp2yoWORLzQD-174" value="" style="shape=partialRectangle;connectable=0;fillColor=none;top=0;left=0;bottom=0;right=0;editable=1;overflow=hidden;whiteSpace=wrap;html=1;" vertex="1" parent="DbLl5ZKrvp2yoWORLzQD-173">
          <mxGeometry width="30" height="30" as="geometry">
            <mxRectangle width="30" height="30" as="alternateBounds" />
          </mxGeometry>
        </mxCell>
        <mxCell id="DbLl5ZKrvp2yoWORLzQD-175" value="base_price" style="shape=partialRectangle;connectable=0;fillColor=none;top=0;left=0;bottom=0;right=0;align=left;spacingLeft=6;overflow=hidden;whiteSpace=wrap;html=1;" vertex="1" parent="DbLl5ZKrvp2yoWORLzQD-173">
          <mxGeometry x="30" width="150" height="30" as="geometry">
            <mxRectangle width="150" height="30" as="alternateBounds" />
          </mxGeometry>
        </mxCell>
        <mxCell id="DbLl5ZKrvp2yoWORLzQD-176" value="" style="shape=tableRow;horizontal=0;startSize=0;swimlaneHead=0;swimlaneBody=0;fillColor=none;collapsible=0;dropTarget=0;points=[[0,0.5],[1,0.5]];portConstraint=eastwest;top=0;left=0;right=0;bottom=0;" vertex="1" parent="DbLl5ZKrvp2yoWORLzQD-130">
          <mxGeometry y="480" width="180" height="30" as="geometry" />
        </mxCell>
        <mxCell id="DbLl5ZKrvp2yoWORLzQD-177" value="" style="shape=partialRectangle;connectable=0;fillColor=none;top=0;left=0;bottom=0;right=0;editable=1;overflow=hidden;whiteSpace=wrap;html=1;" vertex="1" parent="DbLl5ZKrvp2yoWORLzQD-176">
          <mxGeometry width="30" height="30" as="geometry">
            <mxRectangle width="30" height="30" as="alternateBounds" />
          </mxGeometry>
        </mxCell>
        <mxCell id="DbLl5ZKrvp2yoWORLzQD-178" value="discount_rate" style="shape=partialRectangle;connectable=0;fillColor=none;top=0;left=0;bottom=0;right=0;align=left;spacingLeft=6;overflow=hidden;whiteSpace=wrap;html=1;" vertex="1" parent="DbLl5ZKrvp2yoWORLzQD-176">
          <mxGeometry x="30" width="150" height="30" as="geometry">
            <mxRectangle width="150" height="30" as="alternateBounds" />
          </mxGeometry>
        </mxCell>
        <mxCell id="DbLl5ZKrvp2yoWORLzQD-179" value="" style="shape=tableRow;horizontal=0;startSize=0;swimlaneHead=0;swimlaneBody=0;fillColor=none;collapsible=0;dropTarget=0;points=[[0,0.5],[1,0.5]];portConstraint=eastwest;top=0;left=0;right=0;bottom=0;" vertex="1" parent="DbLl5ZKrvp2yoWORLzQD-130">
          <mxGeometry y="510" width="180" height="30" as="geometry" />
        </mxCell>
        <mxCell id="DbLl5ZKrvp2yoWORLzQD-180" value="" style="shape=partialRectangle;connectable=0;fillColor=none;top=0;left=0;bottom=0;right=0;editable=1;overflow=hidden;whiteSpace=wrap;html=1;" vertex="1" parent="DbLl5ZKrvp2yoWORLzQD-179">
          <mxGeometry width="30" height="30" as="geometry">
            <mxRectangle width="30" height="30" as="alternateBounds" />
          </mxGeometry>
        </mxCell>
        <mxCell id="DbLl5ZKrvp2yoWORLzQD-181" value="discount_applied" style="shape=partialRectangle;connectable=0;fillColor=none;top=0;left=0;bottom=0;right=0;align=left;spacingLeft=6;overflow=hidden;whiteSpace=wrap;html=1;" vertex="1" parent="DbLl5ZKrvp2yoWORLzQD-179">
          <mxGeometry x="30" width="150" height="30" as="geometry">
            <mxRectangle width="150" height="30" as="alternateBounds" />
          </mxGeometry>
        </mxCell>
        <mxCell id="DbLl5ZKrvp2yoWORLzQD-182" value="" style="shape=tableRow;horizontal=0;startSize=0;swimlaneHead=0;swimlaneBody=0;fillColor=none;collapsible=0;dropTarget=0;points=[[0,0.5],[1,0.5]];portConstraint=eastwest;top=0;left=0;right=0;bottom=0;" vertex="1" parent="DbLl5ZKrvp2yoWORLzQD-130">
          <mxGeometry y="540" width="180" height="30" as="geometry" />
        </mxCell>
        <mxCell id="DbLl5ZKrvp2yoWORLzQD-183" value="" style="shape=partialRectangle;connectable=0;fillColor=none;top=0;left=0;bottom=0;right=0;editable=1;overflow=hidden;whiteSpace=wrap;html=1;" vertex="1" parent="DbLl5ZKrvp2yoWORLzQD-182">
          <mxGeometry width="30" height="30" as="geometry">
            <mxRectangle width="30" height="30" as="alternateBounds" />
          </mxGeometry>
        </mxCell>
        <mxCell id="DbLl5ZKrvp2yoWORLzQD-184" value="total_amount" style="shape=partialRectangle;connectable=0;fillColor=none;top=0;left=0;bottom=0;right=0;align=left;spacingLeft=6;overflow=hidden;whiteSpace=wrap;html=1;" vertex="1" parent="DbLl5ZKrvp2yoWORLzQD-182">
          <mxGeometry x="30" width="150" height="30" as="geometry">
            <mxRectangle width="150" height="30" as="alternateBounds" />
          </mxGeometry>
        </mxCell>
        <mxCell id="DbLl5ZKrvp2yoWORLzQD-185" value="" style="shape=tableRow;horizontal=0;startSize=0;swimlaneHead=0;swimlaneBody=0;fillColor=none;collapsible=0;dropTarget=0;points=[[0,0.5],[1,0.5]];portConstraint=eastwest;top=0;left=0;right=0;bottom=0;" vertex="1" parent="DbLl5ZKrvp2yoWORLzQD-130">
          <mxGeometry y="570" width="180" height="30" as="geometry" />
        </mxCell>
        <mxCell id="DbLl5ZKrvp2yoWORLzQD-186" value="" style="shape=partialRectangle;connectable=0;fillColor=none;top=0;left=0;bottom=0;right=0;editable=1;overflow=hidden;whiteSpace=wrap;html=1;" vertex="1" parent="DbLl5ZKrvp2yoWORLzQD-185">
          <mxGeometry width="30" height="30" as="geometry">
            <mxRectangle width="30" height="30" as="alternateBounds" />
          </mxGeometry>
        </mxCell>
        <mxCell id="DbLl5ZKrvp2yoWORLzQD-187" value="tax_rate" style="shape=partialRectangle;connectable=0;fillColor=none;top=0;left=0;bottom=0;right=0;align=left;spacingLeft=6;overflow=hidden;whiteSpace=wrap;html=1;" vertex="1" parent="DbLl5ZKrvp2yoWORLzQD-185">
          <mxGeometry x="30" width="150" height="30" as="geometry">
            <mxRectangle width="150" height="30" as="alternateBounds" />
          </mxGeometry>
        </mxCell>
        <mxCell id="DbLl5ZKrvp2yoWORLzQD-188" value="" style="shape=tableRow;horizontal=0;startSize=0;swimlaneHead=0;swimlaneBody=0;fillColor=none;collapsible=0;dropTarget=0;points=[[0,0.5],[1,0.5]];portConstraint=eastwest;top=0;left=0;right=0;bottom=0;" vertex="1" parent="DbLl5ZKrvp2yoWORLzQD-130">
          <mxGeometry y="600" width="180" height="30" as="geometry" />
        </mxCell>
        <mxCell id="DbLl5ZKrvp2yoWORLzQD-189" value="" style="shape=partialRectangle;connectable=0;fillColor=none;top=0;left=0;bottom=0;right=0;editable=1;overflow=hidden;whiteSpace=wrap;html=1;" vertex="1" parent="DbLl5ZKrvp2yoWORLzQD-188">
          <mxGeometry width="30" height="30" as="geometry">
            <mxRectangle width="30" height="30" as="alternateBounds" />
          </mxGeometry>
        </mxCell>
        <mxCell id="DbLl5ZKrvp2yoWORLzQD-190" value="tax_amount" style="shape=partialRectangle;connectable=0;fillColor=none;top=0;left=0;bottom=0;right=0;align=left;spacingLeft=6;overflow=hidden;whiteSpace=wrap;html=1;" vertex="1" parent="DbLl5ZKrvp2yoWORLzQD-188">
          <mxGeometry x="30" width="150" height="30" as="geometry">
            <mxRectangle width="150" height="30" as="alternateBounds" />
          </mxGeometry>
        </mxCell>
        <mxCell id="DbLl5ZKrvp2yoWORLzQD-191" value="Dim_District" style="shape=table;startSize=30;container=1;collapsible=1;childLayout=tableLayout;fixedRows=1;rowLines=0;fontStyle=1;align=center;resizeLast=1;html=1;fillColor=#ffe6cc;strokeColor=#d79b00;" vertex="1" parent="1">
          <mxGeometry x="12" y="740" width="180" height="180" as="geometry" />
        </mxCell>
        <mxCell id="DbLl5ZKrvp2yoWORLzQD-192" value="" style="shape=tableRow;horizontal=0;startSize=0;swimlaneHead=0;swimlaneBody=0;fillColor=none;collapsible=0;dropTarget=0;points=[[0,0.5],[1,0.5]];portConstraint=eastwest;top=0;left=0;right=0;bottom=1;" vertex="1" parent="DbLl5ZKrvp2yoWORLzQD-191">
          <mxGeometry y="30" width="180" height="30" as="geometry" />
        </mxCell>
        <mxCell id="DbLl5ZKrvp2yoWORLzQD-193" value="PK" style="shape=partialRectangle;connectable=0;fillColor=none;top=0;left=0;bottom=0;right=0;fontStyle=1;overflow=hidden;whiteSpace=wrap;html=1;" vertex="1" parent="DbLl5ZKrvp2yoWORLzQD-192">
          <mxGeometry width="30" height="30" as="geometry">
            <mxRectangle width="30" height="30" as="alternateBounds" />
          </mxGeometry>
        </mxCell>
        <mxCell id="DbLl5ZKrvp2yoWORLzQD-194" value="District_ID" style="shape=partialRectangle;connectable=0;fillColor=none;top=0;left=0;bottom=0;right=0;align=left;spacingLeft=6;fontStyle=5;overflow=hidden;whiteSpace=wrap;html=1;" vertex="1" parent="DbLl5ZKrvp2yoWORLzQD-192">
          <mxGeometry x="30" width="150" height="30" as="geometry">
            <mxRectangle width="150" height="30" as="alternateBounds" />
          </mxGeometry>
        </mxCell>
        <mxCell id="DbLl5ZKrvp2yoWORLzQD-195" value="" style="shape=tableRow;horizontal=0;startSize=0;swimlaneHead=0;swimlaneBody=0;fillColor=none;collapsible=0;dropTarget=0;points=[[0,0.5],[1,0.5]];portConstraint=eastwest;top=0;left=0;right=0;bottom=0;" vertex="1" parent="DbLl5ZKrvp2yoWORLzQD-191">
          <mxGeometry y="60" width="180" height="30" as="geometry" />
        </mxCell>
        <mxCell id="DbLl5ZKrvp2yoWORLzQD-196" value="" style="shape=partialRectangle;connectable=0;fillColor=none;top=0;left=0;bottom=0;right=0;editable=1;overflow=hidden;whiteSpace=wrap;html=1;" vertex="1" parent="DbLl5ZKrvp2yoWORLzQD-195">
          <mxGeometry width="30" height="30" as="geometry">
            <mxRectangle width="30" height="30" as="alternateBounds" />
          </mxGeometry>
        </mxCell>
        <mxCell id="DbLl5ZKrvp2yoWORLzQD-197" value="District_name" style="shape=partialRectangle;connectable=0;fillColor=none;top=0;left=0;bottom=0;right=0;align=left;spacingLeft=6;overflow=hidden;whiteSpace=wrap;html=1;" vertex="1" parent="DbLl5ZKrvp2yoWORLzQD-195">
          <mxGeometry x="30" width="150" height="30" as="geometry">
            <mxRectangle width="150" height="30" as="alternateBounds" />
          </mxGeometry>
        </mxCell>
        <mxCell id="DbLl5ZKrvp2yoWORLzQD-198" value="" style="shape=tableRow;horizontal=0;startSize=0;swimlaneHead=0;swimlaneBody=0;fillColor=none;collapsible=0;dropTarget=0;points=[[0,0.5],[1,0.5]];portConstraint=eastwest;top=0;left=0;right=0;bottom=0;" vertex="1" parent="DbLl5ZKrvp2yoWORLzQD-191">
          <mxGeometry y="90" width="180" height="30" as="geometry" />
        </mxCell>
        <mxCell id="DbLl5ZKrvp2yoWORLzQD-199" value="" style="shape=partialRectangle;connectable=0;fillColor=none;top=0;left=0;bottom=0;right=0;editable=1;overflow=hidden;whiteSpace=wrap;html=1;" vertex="1" parent="DbLl5ZKrvp2yoWORLzQD-198">
          <mxGeometry width="30" height="30" as="geometry">
            <mxRectangle width="30" height="30" as="alternateBounds" />
          </mxGeometry>
        </mxCell>
        <mxCell id="DbLl5ZKrvp2yoWORLzQD-200" value="Postal_code" style="shape=partialRectangle;connectable=0;fillColor=none;top=0;left=0;bottom=0;right=0;align=left;spacingLeft=6;overflow=hidden;whiteSpace=wrap;html=1;" vertex="1" parent="DbLl5ZKrvp2yoWORLzQD-198">
          <mxGeometry x="30" width="150" height="30" as="geometry">
            <mxRectangle width="150" height="30" as="alternateBounds" />
          </mxGeometry>
        </mxCell>
        <mxCell id="DbLl5ZKrvp2yoWORLzQD-201" value="" style="shape=tableRow;horizontal=0;startSize=0;swimlaneHead=0;swimlaneBody=0;fillColor=none;collapsible=0;dropTarget=0;points=[[0,0.5],[1,0.5]];portConstraint=eastwest;top=0;left=0;right=0;bottom=0;" vertex="1" parent="DbLl5ZKrvp2yoWORLzQD-191">
          <mxGeometry y="120" width="180" height="30" as="geometry" />
        </mxCell>
        <mxCell id="DbLl5ZKrvp2yoWORLzQD-202" value="" style="shape=partialRectangle;connectable=0;fillColor=none;top=0;left=0;bottom=0;right=0;editable=1;overflow=hidden;whiteSpace=wrap;html=1;" vertex="1" parent="DbLl5ZKrvp2yoWORLzQD-201">
          <mxGeometry width="30" height="30" as="geometry">
            <mxRectangle width="30" height="30" as="alternateBounds" />
          </mxGeometry>
        </mxCell>
        <mxCell id="DbLl5ZKrvp2yoWORLzQD-203" value="Date from" style="shape=partialRectangle;connectable=0;fillColor=none;top=0;left=0;bottom=0;right=0;align=left;spacingLeft=6;overflow=hidden;whiteSpace=wrap;html=1;" vertex="1" parent="DbLl5ZKrvp2yoWORLzQD-201">
          <mxGeometry x="30" width="150" height="30" as="geometry">
            <mxRectangle width="150" height="30" as="alternateBounds" />
          </mxGeometry>
        </mxCell>
        <mxCell id="DbLl5ZKrvp2yoWORLzQD-204" value="" style="shape=tableRow;horizontal=0;startSize=0;swimlaneHead=0;swimlaneBody=0;fillColor=none;collapsible=0;dropTarget=0;points=[[0,0.5],[1,0.5]];portConstraint=eastwest;top=0;left=0;right=0;bottom=0;" vertex="1" parent="DbLl5ZKrvp2yoWORLzQD-191">
          <mxGeometry y="150" width="180" height="30" as="geometry" />
        </mxCell>
        <mxCell id="DbLl5ZKrvp2yoWORLzQD-205" value="" style="shape=partialRectangle;connectable=0;fillColor=none;top=0;left=0;bottom=0;right=0;editable=1;overflow=hidden;whiteSpace=wrap;html=1;" vertex="1" parent="DbLl5ZKrvp2yoWORLzQD-204">
          <mxGeometry width="30" height="30" as="geometry">
            <mxRectangle width="30" height="30" as="alternateBounds" />
          </mxGeometry>
        </mxCell>
        <mxCell id="DbLl5ZKrvp2yoWORLzQD-206" value="Date to" style="shape=partialRectangle;connectable=0;fillColor=none;top=0;left=0;bottom=0;right=0;align=left;spacingLeft=6;overflow=hidden;whiteSpace=wrap;html=1;" vertex="1" parent="DbLl5ZKrvp2yoWORLzQD-204">
          <mxGeometry x="30" width="150" height="30" as="geometry">
            <mxRectangle width="150" height="30" as="alternateBounds" />
          </mxGeometry>
        </mxCell>
        <mxCell id="DbLl5ZKrvp2yoWORLzQD-207" value="&lt;font style=&quot;&quot;&gt;Snowflake Schema - Munich Sales&lt;/font&gt;" style="text;html=1;align=center;verticalAlign=middle;resizable=0;points=[];autosize=1;strokeColor=none;fillColor=none;fontStyle=1;fontSize=15;fontColor=#000000;" vertex="1" parent="1">
          <mxGeometry x="638" y="13" width="260" height="30" as="geometry" />
        </mxCell>
        <mxCell id="DbLl5ZKrvp2yoWORLzQD-208" style="edgeStyle=orthogonalEdgeStyle;rounded=0;orthogonalLoop=1;jettySize=auto;html=1;exitX=1;exitY=0.5;exitDx=0;exitDy=0;endArrow=none;startFill=0;" edge="1" parent="1" source="DbLl5ZKrvp2yoWORLzQD-149" target="DbLl5ZKrvp2yoWORLzQD-74">
          <mxGeometry relative="1" as="geometry" />
        </mxCell>
        <mxCell id="DbLl5ZKrvp2yoWORLzQD-209" value="n" style="edgeLabel;html=1;align=center;verticalAlign=middle;resizable=0;points=[];fontStyle=1" vertex="1" connectable="0" parent="DbLl5ZKrvp2yoWORLzQD-208">
          <mxGeometry x="-0.8535" relative="1" as="geometry">
            <mxPoint x="1" as="offset" />
          </mxGeometry>
        </mxCell>
        <mxCell id="DbLl5ZKrvp2yoWORLzQD-210" value="1" style="edgeLabel;html=1;align=center;verticalAlign=middle;resizable=0;points=[];fontStyle=1" vertex="1" connectable="0" parent="DbLl5ZKrvp2yoWORLzQD-208">
          <mxGeometry x="0.8814" y="-1" relative="1" as="geometry">
            <mxPoint y="-2" as="offset" />
          </mxGeometry>
        </mxCell>
        <mxCell id="DbLl5ZKrvp2yoWORLzQD-211" style="edgeStyle=orthogonalEdgeStyle;rounded=0;orthogonalLoop=1;jettySize=auto;html=1;exitX=1;exitY=0.5;exitDx=0;exitDy=0;entryX=0;entryY=0.5;entryDx=0;entryDy=0;endArrow=none;startFill=0;fontStyle=1" edge="1" parent="1" source="DbLl5ZKrvp2yoWORLzQD-146" target="DbLl5ZKrvp2yoWORLzQD-61">
          <mxGeometry relative="1" as="geometry">
            <Array as="points">
              <mxPoint x="928" y="305" />
              <mxPoint x="928" y="385" />
            </Array>
          </mxGeometry>
        </mxCell>
        <mxCell id="DbLl5ZKrvp2yoWORLzQD-212" value="n" style="edgeLabel;html=1;align=center;verticalAlign=middle;resizable=0;points=[];fontStyle=1" vertex="1" connectable="0" parent="DbLl5ZKrvp2yoWORLzQD-211">
          <mxGeometry x="-0.6368" y="-1" relative="1" as="geometry">
            <mxPoint as="offset" />
          </mxGeometry>
        </mxCell>
        <mxCell id="DbLl5ZKrvp2yoWORLzQD-213" value="1" style="edgeLabel;html=1;align=center;verticalAlign=middle;resizable=0;points=[];fontStyle=1" vertex="1" connectable="0" parent="DbLl5ZKrvp2yoWORLzQD-211">
          <mxGeometry x="0.8158" y="1" relative="1" as="geometry">
            <mxPoint as="offset" />
          </mxGeometry>
        </mxCell>
        <mxCell id="DbLl5ZKrvp2yoWORLzQD-214" style="edgeStyle=orthogonalEdgeStyle;rounded=0;orthogonalLoop=1;jettySize=auto;html=1;exitX=1;exitY=0.5;exitDx=0;exitDy=0;entryX=0;entryY=0.5;entryDx=0;entryDy=0;endArrow=none;startFill=0;" edge="1" parent="1" source="DbLl5ZKrvp2yoWORLzQD-143" target="DbLl5ZKrvp2yoWORLzQD-5">
          <mxGeometry relative="1" as="geometry" />
        </mxCell>
        <mxCell id="DbLl5ZKrvp2yoWORLzQD-215" value="n" style="edgeLabel;html=1;align=center;verticalAlign=middle;resizable=0;points=[];fontStyle=1" vertex="1" connectable="0" parent="DbLl5ZKrvp2yoWORLzQD-214">
          <mxGeometry x="-0.7964" y="1" relative="1" as="geometry">
            <mxPoint as="offset" />
          </mxGeometry>
        </mxCell>
        <mxCell id="DbLl5ZKrvp2yoWORLzQD-216" value="1" style="edgeLabel;html=1;align=center;verticalAlign=middle;resizable=0;points=[];fontStyle=1" vertex="1" connectable="0" parent="DbLl5ZKrvp2yoWORLzQD-214">
          <mxGeometry x="0.8321" relative="1" as="geometry">
            <mxPoint x="1" as="offset" />
          </mxGeometry>
        </mxCell>
        <mxCell id="DbLl5ZKrvp2yoWORLzQD-217" style="edgeStyle=orthogonalEdgeStyle;rounded=0;orthogonalLoop=1;jettySize=auto;html=1;exitX=0;exitY=0.5;exitDx=0;exitDy=0;entryX=1;entryY=0.5;entryDx=0;entryDy=0;endArrow=none;startFill=0;" edge="1" parent="1" source="DbLl5ZKrvp2yoWORLzQD-96" target="DbLl5ZKrvp2yoWORLzQD-192">
          <mxGeometry relative="1" as="geometry" />
        </mxCell>
        <mxCell id="DbLl5ZKrvp2yoWORLzQD-218" value="1" style="edgeLabel;html=1;align=center;verticalAlign=middle;resizable=0;points=[];fontStyle=1" vertex="1" connectable="0" parent="DbLl5ZKrvp2yoWORLzQD-217">
          <mxGeometry x="0.8958" y="1" relative="1" as="geometry">
            <mxPoint as="offset" />
          </mxGeometry>
        </mxCell>
        <mxCell id="DbLl5ZKrvp2yoWORLzQD-219" value="n" style="edgeLabel;html=1;align=center;verticalAlign=middle;resizable=0;points=[];fontStyle=1" vertex="1" connectable="0" parent="DbLl5ZKrvp2yoWORLzQD-217">
          <mxGeometry x="-0.9208" y="2" relative="1" as="geometry">
            <mxPoint as="offset" />
          </mxGeometry>
        </mxCell>
        <mxCell id="DbLl5ZKrvp2yoWORLzQD-220" style="edgeStyle=orthogonalEdgeStyle;rounded=0;orthogonalLoop=1;jettySize=auto;html=1;exitX=1;exitY=0.5;exitDx=0;exitDy=0;entryX=0;entryY=0.5;entryDx=0;entryDy=0;endArrow=none;startFill=0;" edge="1" parent="1" source="DbLl5ZKrvp2yoWORLzQD-93" target="DbLl5ZKrvp2yoWORLzQD-140">
          <mxGeometry relative="1" as="geometry" />
        </mxCell>
        <mxCell id="DbLl5ZKrvp2yoWORLzQD-221" value="n" style="edgeLabel;html=1;align=center;verticalAlign=middle;resizable=0;points=[];fontStyle=1" vertex="1" connectable="0" parent="DbLl5ZKrvp2yoWORLzQD-220">
          <mxGeometry x="0.8853" y="3" relative="1" as="geometry">
            <mxPoint as="offset" />
          </mxGeometry>
        </mxCell>
        <mxCell id="DbLl5ZKrvp2yoWORLzQD-222" value="1" style="edgeLabel;html=1;align=center;verticalAlign=middle;resizable=0;points=[];fontStyle=1" vertex="1" connectable="0" parent="DbLl5ZKrvp2yoWORLzQD-220">
          <mxGeometry x="-0.8147" y="-1" relative="1" as="geometry">
            <mxPoint y="-1" as="offset" />
          </mxGeometry>
        </mxCell>
        <mxCell id="DbLl5ZKrvp2yoWORLzQD-223" style="edgeStyle=orthogonalEdgeStyle;rounded=0;orthogonalLoop=1;jettySize=auto;html=1;exitX=1;exitY=0.5;exitDx=0;exitDy=0;entryX=0;entryY=0.5;entryDx=0;entryDy=0;endArrow=none;startFill=0;" edge="1" parent="1" source="DbLl5ZKrvp2yoWORLzQD-36" target="DbLl5ZKrvp2yoWORLzQD-137">
          <mxGeometry relative="1" as="geometry" />
        </mxCell>
        <mxCell id="DbLl5ZKrvp2yoWORLzQD-224" value="1" style="edgeLabel;html=1;align=center;verticalAlign=middle;resizable=0;points=[];fontStyle=1" vertex="1" connectable="0" parent="DbLl5ZKrvp2yoWORLzQD-223">
          <mxGeometry x="-0.54" y="1" relative="1" as="geometry">
            <mxPoint as="offset" />
          </mxGeometry>
        </mxCell>
        <mxCell id="DbLl5ZKrvp2yoWORLzQD-225" value="n" style="edgeLabel;html=1;align=center;verticalAlign=middle;resizable=0;points=[];fontStyle=1" vertex="1" connectable="0" parent="DbLl5ZKrvp2yoWORLzQD-223">
          <mxGeometry x="0.7" relative="1" as="geometry">
            <mxPoint as="offset" />
          </mxGeometry>
        </mxCell>
        <mxCell id="DbLl5ZKrvp2yoWORLzQD-226" style="edgeStyle=orthogonalEdgeStyle;rounded=0;orthogonalLoop=1;jettySize=auto;html=1;exitX=1;exitY=0.5;exitDx=0;exitDy=0;entryX=0;entryY=0.5;entryDx=0;entryDy=0;endArrow=none;startFill=0;" edge="1" parent="1" source="DbLl5ZKrvp2yoWORLzQD-118" target="DbLl5ZKrvp2yoWORLzQD-134">
          <mxGeometry relative="1" as="geometry" />
        </mxCell>
        <mxCell id="DbLl5ZKrvp2yoWORLzQD-227" value="n" style="edgeLabel;html=1;align=center;verticalAlign=middle;resizable=0;points=[];fontStyle=1" vertex="1" connectable="0" parent="DbLl5ZKrvp2yoWORLzQD-226">
          <mxGeometry x="0.8208" relative="1" as="geometry">
            <mxPoint x="1" as="offset" />
          </mxGeometry>
        </mxCell>
        <mxCell id="DbLl5ZKrvp2yoWORLzQD-228" value="1" style="edgeLabel;html=1;align=center;verticalAlign=middle;resizable=0;points=[];fontStyle=1" vertex="1" connectable="0" parent="DbLl5ZKrvp2yoWORLzQD-226">
          <mxGeometry x="-0.7792" y="1" relative="1" as="geometry">
            <mxPoint x="1" as="offset" />
          </mxGeometry>
        </mxCell>
        <mxCell id="DbLl5ZKrvp2yoWORLzQD-229" value="Dim_Product_category" style="shape=table;startSize=30;container=1;collapsible=1;childLayout=tableLayout;fixedRows=1;rowLines=0;fontStyle=1;align=center;resizeLast=1;html=1;fillColor=#ffe6cc;strokeColor=#d79b00;" vertex="1" parent="1">
          <mxGeometry x="12" y="50" width="180" height="150" as="geometry" />
        </mxCell>
        <mxCell id="DbLl5ZKrvp2yoWORLzQD-230" value="" style="shape=tableRow;horizontal=0;startSize=0;swimlaneHead=0;swimlaneBody=0;fillColor=none;collapsible=0;dropTarget=0;points=[[0,0.5],[1,0.5]];portConstraint=eastwest;top=0;left=0;right=0;bottom=1;" vertex="1" parent="DbLl5ZKrvp2yoWORLzQD-229">
          <mxGeometry y="30" width="180" height="30" as="geometry" />
        </mxCell>
        <mxCell id="DbLl5ZKrvp2yoWORLzQD-231" value="PK" style="shape=partialRectangle;connectable=0;fillColor=none;top=0;left=0;bottom=0;right=0;fontStyle=1;overflow=hidden;whiteSpace=wrap;html=1;" vertex="1" parent="DbLl5ZKrvp2yoWORLzQD-230">
          <mxGeometry width="30" height="30" as="geometry">
            <mxRectangle width="30" height="30" as="alternateBounds" />
          </mxGeometry>
        </mxCell>
        <mxCell id="DbLl5ZKrvp2yoWORLzQD-232" value="Product_category_ID" style="shape=partialRectangle;connectable=0;fillColor=none;top=0;left=0;bottom=0;right=0;align=left;spacingLeft=6;fontStyle=5;overflow=hidden;whiteSpace=wrap;html=1;" vertex="1" parent="DbLl5ZKrvp2yoWORLzQD-230">
          <mxGeometry x="30" width="150" height="30" as="geometry">
            <mxRectangle width="150" height="30" as="alternateBounds" />
          </mxGeometry>
        </mxCell>
        <mxCell id="DbLl5ZKrvp2yoWORLzQD-233" value="" style="shape=tableRow;horizontal=0;startSize=0;swimlaneHead=0;swimlaneBody=0;fillColor=none;collapsible=0;dropTarget=0;points=[[0,0.5],[1,0.5]];portConstraint=eastwest;top=0;left=0;right=0;bottom=0;" vertex="1" parent="DbLl5ZKrvp2yoWORLzQD-229">
          <mxGeometry y="60" width="180" height="30" as="geometry" />
        </mxCell>
        <mxCell id="DbLl5ZKrvp2yoWORLzQD-234" value="" style="shape=partialRectangle;connectable=0;fillColor=none;top=0;left=0;bottom=0;right=0;editable=1;overflow=hidden;whiteSpace=wrap;html=1;" vertex="1" parent="DbLl5ZKrvp2yoWORLzQD-233">
          <mxGeometry width="30" height="30" as="geometry">
            <mxRectangle width="30" height="30" as="alternateBounds" />
          </mxGeometry>
        </mxCell>
        <mxCell id="DbLl5ZKrvp2yoWORLzQD-235" value="Product_category_name" style="shape=partialRectangle;connectable=0;fillColor=none;top=0;left=0;bottom=0;right=0;align=left;spacingLeft=6;overflow=hidden;whiteSpace=wrap;html=1;" vertex="1" parent="DbLl5ZKrvp2yoWORLzQD-233">
          <mxGeometry x="30" width="150" height="30" as="geometry">
            <mxRectangle width="150" height="30" as="alternateBounds" />
          </mxGeometry>
        </mxCell>
        <mxCell id="DbLl5ZKrvp2yoWORLzQD-236" value="" style="shape=tableRow;horizontal=0;startSize=0;swimlaneHead=0;swimlaneBody=0;fillColor=none;collapsible=0;dropTarget=0;points=[[0,0.5],[1,0.5]];portConstraint=eastwest;top=0;left=0;right=0;bottom=0;" vertex="1" parent="DbLl5ZKrvp2yoWORLzQD-229">
          <mxGeometry y="90" width="180" height="30" as="geometry" />
        </mxCell>
        <mxCell id="DbLl5ZKrvp2yoWORLzQD-237" value="" style="shape=partialRectangle;connectable=0;fillColor=none;top=0;left=0;bottom=0;right=0;editable=1;overflow=hidden;whiteSpace=wrap;html=1;" vertex="1" parent="DbLl5ZKrvp2yoWORLzQD-236">
          <mxGeometry width="30" height="30" as="geometry">
            <mxRectangle width="30" height="30" as="alternateBounds" />
          </mxGeometry>
        </mxCell>
        <mxCell id="DbLl5ZKrvp2yoWORLzQD-238" value="Date from" style="shape=partialRectangle;connectable=0;fillColor=none;top=0;left=0;bottom=0;right=0;align=left;spacingLeft=6;overflow=hidden;whiteSpace=wrap;html=1;" vertex="1" parent="DbLl5ZKrvp2yoWORLzQD-236">
          <mxGeometry x="30" width="150" height="30" as="geometry">
            <mxRectangle width="150" height="30" as="alternateBounds" />
          </mxGeometry>
        </mxCell>
        <mxCell id="DbLl5ZKrvp2yoWORLzQD-239" value="" style="shape=tableRow;horizontal=0;startSize=0;swimlaneHead=0;swimlaneBody=0;fillColor=none;collapsible=0;dropTarget=0;points=[[0,0.5],[1,0.5]];portConstraint=eastwest;top=0;left=0;right=0;bottom=0;" vertex="1" parent="DbLl5ZKrvp2yoWORLzQD-229">
          <mxGeometry y="120" width="180" height="30" as="geometry" />
        </mxCell>
        <mxCell id="DbLl5ZKrvp2yoWORLzQD-240" value="" style="shape=partialRectangle;connectable=0;fillColor=none;top=0;left=0;bottom=0;right=0;editable=1;overflow=hidden;whiteSpace=wrap;html=1;" vertex="1" parent="DbLl5ZKrvp2yoWORLzQD-239">
          <mxGeometry width="30" height="30" as="geometry">
            <mxRectangle width="30" height="30" as="alternateBounds" />
          </mxGeometry>
        </mxCell>
        <mxCell id="DbLl5ZKrvp2yoWORLzQD-241" value="Date to" style="shape=partialRectangle;connectable=0;fillColor=none;top=0;left=0;bottom=0;right=0;align=left;spacingLeft=6;overflow=hidden;whiteSpace=wrap;html=1;" vertex="1" parent="DbLl5ZKrvp2yoWORLzQD-239">
          <mxGeometry x="30" width="150" height="30" as="geometry">
            <mxRectangle width="150" height="30" as="alternateBounds" />
          </mxGeometry>
        </mxCell>
        <mxCell id="DbLl5ZKrvp2yoWORLzQD-242" value="Dim_Product_subcategory" style="shape=table;startSize=30;container=1;collapsible=1;childLayout=tableLayout;fixedRows=1;rowLines=0;fontStyle=1;align=center;resizeLast=1;html=1;fillColor=#ffe6cc;strokeColor=#d79b00;" vertex="1" parent="1">
          <mxGeometry x="7" y="220" width="190" height="150" as="geometry" />
        </mxCell>
        <mxCell id="DbLl5ZKrvp2yoWORLzQD-243" value="" style="shape=tableRow;horizontal=0;startSize=0;swimlaneHead=0;swimlaneBody=0;fillColor=none;collapsible=0;dropTarget=0;points=[[0,0.5],[1,0.5]];portConstraint=eastwest;top=0;left=0;right=0;bottom=1;" vertex="1" parent="DbLl5ZKrvp2yoWORLzQD-242">
          <mxGeometry y="30" width="190" height="30" as="geometry" />
        </mxCell>
        <mxCell id="DbLl5ZKrvp2yoWORLzQD-244" value="PK" style="shape=partialRectangle;connectable=0;fillColor=none;top=0;left=0;bottom=0;right=0;fontStyle=1;overflow=hidden;whiteSpace=wrap;html=1;" vertex="1" parent="DbLl5ZKrvp2yoWORLzQD-243">
          <mxGeometry width="30" height="30" as="geometry">
            <mxRectangle width="30" height="30" as="alternateBounds" />
          </mxGeometry>
        </mxCell>
        <mxCell id="DbLl5ZKrvp2yoWORLzQD-245" value="Product_subcategory_ID" style="shape=partialRectangle;connectable=0;fillColor=none;top=0;left=0;bottom=0;right=0;align=left;spacingLeft=6;fontStyle=5;overflow=hidden;whiteSpace=wrap;html=1;" vertex="1" parent="DbLl5ZKrvp2yoWORLzQD-243">
          <mxGeometry x="30" width="160" height="30" as="geometry">
            <mxRectangle width="160" height="30" as="alternateBounds" />
          </mxGeometry>
        </mxCell>
        <mxCell id="DbLl5ZKrvp2yoWORLzQD-246" value="" style="shape=tableRow;horizontal=0;startSize=0;swimlaneHead=0;swimlaneBody=0;fillColor=none;collapsible=0;dropTarget=0;points=[[0,0.5],[1,0.5]];portConstraint=eastwest;top=0;left=0;right=0;bottom=0;" vertex="1" parent="DbLl5ZKrvp2yoWORLzQD-242">
          <mxGeometry y="60" width="190" height="30" as="geometry" />
        </mxCell>
        <mxCell id="DbLl5ZKrvp2yoWORLzQD-247" value="" style="shape=partialRectangle;connectable=0;fillColor=none;top=0;left=0;bottom=0;right=0;editable=1;overflow=hidden;whiteSpace=wrap;html=1;" vertex="1" parent="DbLl5ZKrvp2yoWORLzQD-246">
          <mxGeometry width="30" height="30" as="geometry">
            <mxRectangle width="30" height="30" as="alternateBounds" />
          </mxGeometry>
        </mxCell>
        <mxCell id="DbLl5ZKrvp2yoWORLzQD-248" value="Product_subcategory_name" style="shape=partialRectangle;connectable=0;fillColor=none;top=0;left=0;bottom=0;right=0;align=left;spacingLeft=6;overflow=hidden;whiteSpace=wrap;html=1;" vertex="1" parent="DbLl5ZKrvp2yoWORLzQD-246">
          <mxGeometry x="30" width="160" height="30" as="geometry">
            <mxRectangle width="160" height="30" as="alternateBounds" />
          </mxGeometry>
        </mxCell>
        <mxCell id="DbLl5ZKrvp2yoWORLzQD-249" value="" style="shape=tableRow;horizontal=0;startSize=0;swimlaneHead=0;swimlaneBody=0;fillColor=none;collapsible=0;dropTarget=0;points=[[0,0.5],[1,0.5]];portConstraint=eastwest;top=0;left=0;right=0;bottom=0;" vertex="1" parent="DbLl5ZKrvp2yoWORLzQD-242">
          <mxGeometry y="90" width="190" height="30" as="geometry" />
        </mxCell>
        <mxCell id="DbLl5ZKrvp2yoWORLzQD-250" value="" style="shape=partialRectangle;connectable=0;fillColor=none;top=0;left=0;bottom=0;right=0;editable=1;overflow=hidden;whiteSpace=wrap;html=1;" vertex="1" parent="DbLl5ZKrvp2yoWORLzQD-249">
          <mxGeometry width="30" height="30" as="geometry">
            <mxRectangle width="30" height="30" as="alternateBounds" />
          </mxGeometry>
        </mxCell>
        <mxCell id="DbLl5ZKrvp2yoWORLzQD-251" value="Date from" style="shape=partialRectangle;connectable=0;fillColor=none;top=0;left=0;bottom=0;right=0;align=left;spacingLeft=6;overflow=hidden;whiteSpace=wrap;html=1;" vertex="1" parent="DbLl5ZKrvp2yoWORLzQD-249">
          <mxGeometry x="30" width="160" height="30" as="geometry">
            <mxRectangle width="160" height="30" as="alternateBounds" />
          </mxGeometry>
        </mxCell>
        <mxCell id="DbLl5ZKrvp2yoWORLzQD-252" value="" style="shape=tableRow;horizontal=0;startSize=0;swimlaneHead=0;swimlaneBody=0;fillColor=none;collapsible=0;dropTarget=0;points=[[0,0.5],[1,0.5]];portConstraint=eastwest;top=0;left=0;right=0;bottom=0;" vertex="1" parent="DbLl5ZKrvp2yoWORLzQD-242">
          <mxGeometry y="120" width="190" height="30" as="geometry" />
        </mxCell>
        <mxCell id="DbLl5ZKrvp2yoWORLzQD-253" value="" style="shape=partialRectangle;connectable=0;fillColor=none;top=0;left=0;bottom=0;right=0;editable=1;overflow=hidden;whiteSpace=wrap;html=1;" vertex="1" parent="DbLl5ZKrvp2yoWORLzQD-252">
          <mxGeometry width="30" height="30" as="geometry">
            <mxRectangle width="30" height="30" as="alternateBounds" />
          </mxGeometry>
        </mxCell>
        <mxCell id="DbLl5ZKrvp2yoWORLzQD-254" value="&lt;meta charset=&quot;utf-8&quot;&gt;&lt;span style=&quot;color: rgb(0, 0, 0); font-family: Helvetica; font-size: 12px; font-style: normal; font-variant-ligatures: normal; font-variant-caps: normal; font-weight: 400; letter-spacing: normal; orphans: 2; text-align: left; text-indent: 0px; text-transform: none; widows: 2; word-spacing: 0px; -webkit-text-stroke-width: 0px; white-space: normal; background-color: rgb(236, 236, 236); text-decoration-thickness: initial; text-decoration-style: initial; text-decoration-color: initial; display: inline !important; float: none;&quot;&gt;Date to&lt;/span&gt;" style="shape=partialRectangle;connectable=0;fillColor=none;top=0;left=0;bottom=0;right=0;align=left;spacingLeft=6;overflow=hidden;whiteSpace=wrap;html=1;" vertex="1" parent="DbLl5ZKrvp2yoWORLzQD-252">
          <mxGeometry x="30" width="160" height="30" as="geometry">
            <mxRectangle width="160" height="30" as="alternateBounds" />
          </mxGeometry>
        </mxCell>
        <mxCell id="DbLl5ZKrvp2yoWORLzQD-255" value="Dim_Product_brand" style="shape=table;startSize=30;container=1;collapsible=1;childLayout=tableLayout;fixedRows=1;rowLines=0;fontStyle=1;align=center;resizeLast=1;html=1;fillColor=#ffe6cc;strokeColor=#d79b00;" vertex="1" parent="1">
          <mxGeometry x="12" y="390" width="180" height="150" as="geometry" />
        </mxCell>
        <mxCell id="DbLl5ZKrvp2yoWORLzQD-256" value="" style="shape=tableRow;horizontal=0;startSize=0;swimlaneHead=0;swimlaneBody=0;fillColor=none;collapsible=0;dropTarget=0;points=[[0,0.5],[1,0.5]];portConstraint=eastwest;top=0;left=0;right=0;bottom=1;" vertex="1" parent="DbLl5ZKrvp2yoWORLzQD-255">
          <mxGeometry y="30" width="180" height="30" as="geometry" />
        </mxCell>
        <mxCell id="DbLl5ZKrvp2yoWORLzQD-257" value="PK" style="shape=partialRectangle;connectable=0;fillColor=none;top=0;left=0;bottom=0;right=0;fontStyle=1;overflow=hidden;whiteSpace=wrap;html=1;" vertex="1" parent="DbLl5ZKrvp2yoWORLzQD-256">
          <mxGeometry width="30" height="30" as="geometry">
            <mxRectangle width="30" height="30" as="alternateBounds" />
          </mxGeometry>
        </mxCell>
        <mxCell id="DbLl5ZKrvp2yoWORLzQD-258" value="Product_brand_ID" style="shape=partialRectangle;connectable=0;fillColor=none;top=0;left=0;bottom=0;right=0;align=left;spacingLeft=6;fontStyle=5;overflow=hidden;whiteSpace=wrap;html=1;" vertex="1" parent="DbLl5ZKrvp2yoWORLzQD-256">
          <mxGeometry x="30" width="150" height="30" as="geometry">
            <mxRectangle width="150" height="30" as="alternateBounds" />
          </mxGeometry>
        </mxCell>
        <mxCell id="DbLl5ZKrvp2yoWORLzQD-259" value="" style="shape=tableRow;horizontal=0;startSize=0;swimlaneHead=0;swimlaneBody=0;fillColor=none;collapsible=0;dropTarget=0;points=[[0,0.5],[1,0.5]];portConstraint=eastwest;top=0;left=0;right=0;bottom=0;" vertex="1" parent="DbLl5ZKrvp2yoWORLzQD-255">
          <mxGeometry y="60" width="180" height="30" as="geometry" />
        </mxCell>
        <mxCell id="DbLl5ZKrvp2yoWORLzQD-260" value="" style="shape=partialRectangle;connectable=0;fillColor=none;top=0;left=0;bottom=0;right=0;editable=1;overflow=hidden;whiteSpace=wrap;html=1;" vertex="1" parent="DbLl5ZKrvp2yoWORLzQD-259">
          <mxGeometry width="30" height="30" as="geometry">
            <mxRectangle width="30" height="30" as="alternateBounds" />
          </mxGeometry>
        </mxCell>
        <mxCell id="DbLl5ZKrvp2yoWORLzQD-261" value="Product_brand_name" style="shape=partialRectangle;connectable=0;fillColor=none;top=0;left=0;bottom=0;right=0;align=left;spacingLeft=6;overflow=hidden;whiteSpace=wrap;html=1;" vertex="1" parent="DbLl5ZKrvp2yoWORLzQD-259">
          <mxGeometry x="30" width="150" height="30" as="geometry">
            <mxRectangle width="150" height="30" as="alternateBounds" />
          </mxGeometry>
        </mxCell>
        <mxCell id="DbLl5ZKrvp2yoWORLzQD-262" value="" style="shape=tableRow;horizontal=0;startSize=0;swimlaneHead=0;swimlaneBody=0;fillColor=none;collapsible=0;dropTarget=0;points=[[0,0.5],[1,0.5]];portConstraint=eastwest;top=0;left=0;right=0;bottom=0;" vertex="1" parent="DbLl5ZKrvp2yoWORLzQD-255">
          <mxGeometry y="90" width="180" height="30" as="geometry" />
        </mxCell>
        <mxCell id="DbLl5ZKrvp2yoWORLzQD-263" value="" style="shape=partialRectangle;connectable=0;fillColor=none;top=0;left=0;bottom=0;right=0;editable=1;overflow=hidden;whiteSpace=wrap;html=1;" vertex="1" parent="DbLl5ZKrvp2yoWORLzQD-262">
          <mxGeometry width="30" height="30" as="geometry">
            <mxRectangle width="30" height="30" as="alternateBounds" />
          </mxGeometry>
        </mxCell>
        <mxCell id="DbLl5ZKrvp2yoWORLzQD-264" value="Date from" style="shape=partialRectangle;connectable=0;fillColor=none;top=0;left=0;bottom=0;right=0;align=left;spacingLeft=6;overflow=hidden;whiteSpace=wrap;html=1;" vertex="1" parent="DbLl5ZKrvp2yoWORLzQD-262">
          <mxGeometry x="30" width="150" height="30" as="geometry">
            <mxRectangle width="150" height="30" as="alternateBounds" />
          </mxGeometry>
        </mxCell>
        <mxCell id="DbLl5ZKrvp2yoWORLzQD-265" value="" style="shape=tableRow;horizontal=0;startSize=0;swimlaneHead=0;swimlaneBody=0;fillColor=none;collapsible=0;dropTarget=0;points=[[0,0.5],[1,0.5]];portConstraint=eastwest;top=0;left=0;right=0;bottom=0;" vertex="1" parent="DbLl5ZKrvp2yoWORLzQD-255">
          <mxGeometry y="120" width="180" height="30" as="geometry" />
        </mxCell>
        <mxCell id="DbLl5ZKrvp2yoWORLzQD-266" value="" style="shape=partialRectangle;connectable=0;fillColor=none;top=0;left=0;bottom=0;right=0;editable=1;overflow=hidden;whiteSpace=wrap;html=1;" vertex="1" parent="DbLl5ZKrvp2yoWORLzQD-265">
          <mxGeometry width="30" height="30" as="geometry">
            <mxRectangle width="30" height="30" as="alternateBounds" />
          </mxGeometry>
        </mxCell>
        <mxCell id="DbLl5ZKrvp2yoWORLzQD-267" value="Date to" style="shape=partialRectangle;connectable=0;fillColor=none;top=0;left=0;bottom=0;right=0;align=left;spacingLeft=6;overflow=hidden;whiteSpace=wrap;html=1;" vertex="1" parent="DbLl5ZKrvp2yoWORLzQD-265">
          <mxGeometry x="30" width="150" height="30" as="geometry">
            <mxRectangle width="150" height="30" as="alternateBounds" />
          </mxGeometry>
        </mxCell>
        <mxCell id="DbLl5ZKrvp2yoWORLzQD-268" value="Dim_Product_department" style="shape=table;startSize=30;container=1;collapsible=1;childLayout=tableLayout;fixedRows=1;rowLines=0;fontStyle=1;align=center;resizeLast=1;html=1;fillColor=#ffe6cc;strokeColor=#d79b00;" vertex="1" parent="1">
          <mxGeometry x="12" y="560" width="195" height="150" as="geometry" />
        </mxCell>
        <mxCell id="DbLl5ZKrvp2yoWORLzQD-269" value="" style="shape=tableRow;horizontal=0;startSize=0;swimlaneHead=0;swimlaneBody=0;fillColor=none;collapsible=0;dropTarget=0;points=[[0,0.5],[1,0.5]];portConstraint=eastwest;top=0;left=0;right=0;bottom=1;" vertex="1" parent="DbLl5ZKrvp2yoWORLzQD-268">
          <mxGeometry y="30" width="195" height="30" as="geometry" />
        </mxCell>
        <mxCell id="DbLl5ZKrvp2yoWORLzQD-270" value="PK" style="shape=partialRectangle;connectable=0;fillColor=none;top=0;left=0;bottom=0;right=0;fontStyle=1;overflow=hidden;whiteSpace=wrap;html=1;" vertex="1" parent="DbLl5ZKrvp2yoWORLzQD-269">
          <mxGeometry width="30" height="30" as="geometry">
            <mxRectangle width="30" height="30" as="alternateBounds" />
          </mxGeometry>
        </mxCell>
        <mxCell id="DbLl5ZKrvp2yoWORLzQD-271" value="Product_department_ID" style="shape=partialRectangle;connectable=0;fillColor=none;top=0;left=0;bottom=0;right=0;align=left;spacingLeft=6;fontStyle=5;overflow=hidden;whiteSpace=wrap;html=1;" vertex="1" parent="DbLl5ZKrvp2yoWORLzQD-269">
          <mxGeometry x="30" width="165" height="30" as="geometry">
            <mxRectangle width="165" height="30" as="alternateBounds" />
          </mxGeometry>
        </mxCell>
        <mxCell id="DbLl5ZKrvp2yoWORLzQD-272" value="" style="shape=tableRow;horizontal=0;startSize=0;swimlaneHead=0;swimlaneBody=0;fillColor=none;collapsible=0;dropTarget=0;points=[[0,0.5],[1,0.5]];portConstraint=eastwest;top=0;left=0;right=0;bottom=0;" vertex="1" parent="DbLl5ZKrvp2yoWORLzQD-268">
          <mxGeometry y="60" width="195" height="30" as="geometry" />
        </mxCell>
        <mxCell id="DbLl5ZKrvp2yoWORLzQD-273" value="" style="shape=partialRectangle;connectable=0;fillColor=none;top=0;left=0;bottom=0;right=0;editable=1;overflow=hidden;whiteSpace=wrap;html=1;" vertex="1" parent="DbLl5ZKrvp2yoWORLzQD-272">
          <mxGeometry width="30" height="30" as="geometry">
            <mxRectangle width="30" height="30" as="alternateBounds" />
          </mxGeometry>
        </mxCell>
        <mxCell id="DbLl5ZKrvp2yoWORLzQD-274" value="Product_department_name" style="shape=partialRectangle;connectable=0;fillColor=none;top=0;left=0;bottom=0;right=0;align=left;spacingLeft=6;overflow=hidden;whiteSpace=wrap;html=1;" vertex="1" parent="DbLl5ZKrvp2yoWORLzQD-272">
          <mxGeometry x="30" width="165" height="30" as="geometry">
            <mxRectangle width="165" height="30" as="alternateBounds" />
          </mxGeometry>
        </mxCell>
        <mxCell id="DbLl5ZKrvp2yoWORLzQD-275" value="" style="shape=tableRow;horizontal=0;startSize=0;swimlaneHead=0;swimlaneBody=0;fillColor=none;collapsible=0;dropTarget=0;points=[[0,0.5],[1,0.5]];portConstraint=eastwest;top=0;left=0;right=0;bottom=0;" vertex="1" parent="DbLl5ZKrvp2yoWORLzQD-268">
          <mxGeometry y="90" width="195" height="30" as="geometry" />
        </mxCell>
        <mxCell id="DbLl5ZKrvp2yoWORLzQD-276" value="" style="shape=partialRectangle;connectable=0;fillColor=none;top=0;left=0;bottom=0;right=0;editable=1;overflow=hidden;whiteSpace=wrap;html=1;" vertex="1" parent="DbLl5ZKrvp2yoWORLzQD-275">
          <mxGeometry width="30" height="30" as="geometry">
            <mxRectangle width="30" height="30" as="alternateBounds" />
          </mxGeometry>
        </mxCell>
        <mxCell id="DbLl5ZKrvp2yoWORLzQD-277" value="Date from" style="shape=partialRectangle;connectable=0;fillColor=none;top=0;left=0;bottom=0;right=0;align=left;spacingLeft=6;overflow=hidden;whiteSpace=wrap;html=1;" vertex="1" parent="DbLl5ZKrvp2yoWORLzQD-275">
          <mxGeometry x="30" width="165" height="30" as="geometry">
            <mxRectangle width="165" height="30" as="alternateBounds" />
          </mxGeometry>
        </mxCell>
        <mxCell id="DbLl5ZKrvp2yoWORLzQD-278" value="" style="shape=tableRow;horizontal=0;startSize=0;swimlaneHead=0;swimlaneBody=0;fillColor=none;collapsible=0;dropTarget=0;points=[[0,0.5],[1,0.5]];portConstraint=eastwest;top=0;left=0;right=0;bottom=0;" vertex="1" parent="DbLl5ZKrvp2yoWORLzQD-268">
          <mxGeometry y="120" width="195" height="30" as="geometry" />
        </mxCell>
        <mxCell id="DbLl5ZKrvp2yoWORLzQD-279" value="" style="shape=partialRectangle;connectable=0;fillColor=none;top=0;left=0;bottom=0;right=0;editable=1;overflow=hidden;whiteSpace=wrap;html=1;" vertex="1" parent="DbLl5ZKrvp2yoWORLzQD-278">
          <mxGeometry width="30" height="30" as="geometry">
            <mxRectangle width="30" height="30" as="alternateBounds" />
          </mxGeometry>
        </mxCell>
        <mxCell id="DbLl5ZKrvp2yoWORLzQD-280" value="Date to" style="shape=partialRectangle;connectable=0;fillColor=none;top=0;left=0;bottom=0;right=0;align=left;spacingLeft=6;overflow=hidden;whiteSpace=wrap;html=1;" vertex="1" parent="DbLl5ZKrvp2yoWORLzQD-278">
          <mxGeometry x="30" width="165" height="30" as="geometry">
            <mxRectangle width="165" height="30" as="alternateBounds" />
          </mxGeometry>
        </mxCell>
        <mxCell id="DbLl5ZKrvp2yoWORLzQD-281" value="Dim_Store_location" style="shape=table;startSize=30;container=1;collapsible=1;childLayout=tableLayout;fixedRows=1;rowLines=0;fontStyle=1;align=center;resizeLast=1;html=1;fillColor=#ffe6cc;strokeColor=#d79b00;" vertex="1" parent="1">
          <mxGeometry x="468" y="810" width="180" height="150" as="geometry" />
        </mxCell>
        <mxCell id="DbLl5ZKrvp2yoWORLzQD-282" value="" style="shape=tableRow;horizontal=0;startSize=0;swimlaneHead=0;swimlaneBody=0;fillColor=none;collapsible=0;dropTarget=0;points=[[0,0.5],[1,0.5]];portConstraint=eastwest;top=0;left=0;right=0;bottom=1;" vertex="1" parent="DbLl5ZKrvp2yoWORLzQD-281">
          <mxGeometry y="30" width="180" height="30" as="geometry" />
        </mxCell>
        <mxCell id="DbLl5ZKrvp2yoWORLzQD-283" value="PK" style="shape=partialRectangle;connectable=0;fillColor=none;top=0;left=0;bottom=0;right=0;fontStyle=1;overflow=hidden;whiteSpace=wrap;html=1;" vertex="1" parent="DbLl5ZKrvp2yoWORLzQD-282">
          <mxGeometry width="30" height="30" as="geometry">
            <mxRectangle width="30" height="30" as="alternateBounds" />
          </mxGeometry>
        </mxCell>
        <mxCell id="DbLl5ZKrvp2yoWORLzQD-284" value="Store_location_ID" style="shape=partialRectangle;connectable=0;fillColor=none;top=0;left=0;bottom=0;right=0;align=left;spacingLeft=6;fontStyle=5;overflow=hidden;whiteSpace=wrap;html=1;" vertex="1" parent="DbLl5ZKrvp2yoWORLzQD-282">
          <mxGeometry x="30" width="150" height="30" as="geometry">
            <mxRectangle width="150" height="30" as="alternateBounds" />
          </mxGeometry>
        </mxCell>
        <mxCell id="DbLl5ZKrvp2yoWORLzQD-285" value="" style="shape=tableRow;horizontal=0;startSize=0;swimlaneHead=0;swimlaneBody=0;fillColor=none;collapsible=0;dropTarget=0;points=[[0,0.5],[1,0.5]];portConstraint=eastwest;top=0;left=0;right=0;bottom=0;" vertex="1" parent="DbLl5ZKrvp2yoWORLzQD-281">
          <mxGeometry y="60" width="180" height="30" as="geometry" />
        </mxCell>
        <mxCell id="DbLl5ZKrvp2yoWORLzQD-286" value="" style="shape=partialRectangle;connectable=0;fillColor=none;top=0;left=0;bottom=0;right=0;editable=1;overflow=hidden;whiteSpace=wrap;html=1;" vertex="1" parent="DbLl5ZKrvp2yoWORLzQD-285">
          <mxGeometry width="30" height="30" as="geometry">
            <mxRectangle width="30" height="30" as="alternateBounds" />
          </mxGeometry>
        </mxCell>
        <mxCell id="DbLl5ZKrvp2yoWORLzQD-287" value="Store_location_name" style="shape=partialRectangle;connectable=0;fillColor=none;top=0;left=0;bottom=0;right=0;align=left;spacingLeft=6;overflow=hidden;whiteSpace=wrap;html=1;" vertex="1" parent="DbLl5ZKrvp2yoWORLzQD-285">
          <mxGeometry x="30" width="150" height="30" as="geometry">
            <mxRectangle width="150" height="30" as="alternateBounds" />
          </mxGeometry>
        </mxCell>
        <mxCell id="DbLl5ZKrvp2yoWORLzQD-288" value="" style="shape=tableRow;horizontal=0;startSize=0;swimlaneHead=0;swimlaneBody=0;fillColor=none;collapsible=0;dropTarget=0;points=[[0,0.5],[1,0.5]];portConstraint=eastwest;top=0;left=0;right=0;bottom=0;" vertex="1" parent="DbLl5ZKrvp2yoWORLzQD-281">
          <mxGeometry y="90" width="180" height="30" as="geometry" />
        </mxCell>
        <mxCell id="DbLl5ZKrvp2yoWORLzQD-289" value="" style="shape=partialRectangle;connectable=0;fillColor=none;top=0;left=0;bottom=0;right=0;editable=1;overflow=hidden;whiteSpace=wrap;html=1;" vertex="1" parent="DbLl5ZKrvp2yoWORLzQD-288">
          <mxGeometry width="30" height="30" as="geometry">
            <mxRectangle width="30" height="30" as="alternateBounds" />
          </mxGeometry>
        </mxCell>
        <mxCell id="DbLl5ZKrvp2yoWORLzQD-290" value="Date from" style="shape=partialRectangle;connectable=0;fillColor=none;top=0;left=0;bottom=0;right=0;align=left;spacingLeft=6;overflow=hidden;whiteSpace=wrap;html=1;" vertex="1" parent="DbLl5ZKrvp2yoWORLzQD-288">
          <mxGeometry x="30" width="150" height="30" as="geometry">
            <mxRectangle width="150" height="30" as="alternateBounds" />
          </mxGeometry>
        </mxCell>
        <mxCell id="DbLl5ZKrvp2yoWORLzQD-291" value="" style="shape=tableRow;horizontal=0;startSize=0;swimlaneHead=0;swimlaneBody=0;fillColor=none;collapsible=0;dropTarget=0;points=[[0,0.5],[1,0.5]];portConstraint=eastwest;top=0;left=0;right=0;bottom=0;" vertex="1" parent="DbLl5ZKrvp2yoWORLzQD-281">
          <mxGeometry y="120" width="180" height="30" as="geometry" />
        </mxCell>
        <mxCell id="DbLl5ZKrvp2yoWORLzQD-292" value="" style="shape=partialRectangle;connectable=0;fillColor=none;top=0;left=0;bottom=0;right=0;editable=1;overflow=hidden;whiteSpace=wrap;html=1;" vertex="1" parent="DbLl5ZKrvp2yoWORLzQD-291">
          <mxGeometry width="30" height="30" as="geometry">
            <mxRectangle width="30" height="30" as="alternateBounds" />
          </mxGeometry>
        </mxCell>
        <mxCell id="DbLl5ZKrvp2yoWORLzQD-293" value="Date to" style="shape=partialRectangle;connectable=0;fillColor=none;top=0;left=0;bottom=0;right=0;align=left;spacingLeft=6;overflow=hidden;whiteSpace=wrap;html=1;" vertex="1" parent="DbLl5ZKrvp2yoWORLzQD-291">
          <mxGeometry x="30" width="150" height="30" as="geometry">
            <mxRectangle width="150" height="30" as="alternateBounds" />
          </mxGeometry>
        </mxCell>
        <mxCell id="DbLl5ZKrvp2yoWORLzQD-294" value="Dim_Store_type" style="shape=table;startSize=30;container=1;collapsible=1;childLayout=tableLayout;fixedRows=1;rowLines=0;fontStyle=1;align=center;resizeLast=1;html=1;fillColor=#ffe6cc;strokeColor=#d79b00;" vertex="1" parent="1">
          <mxGeometry x="242" y="850" width="180" height="150" as="geometry" />
        </mxCell>
        <mxCell id="DbLl5ZKrvp2yoWORLzQD-295" value="" style="shape=tableRow;horizontal=0;startSize=0;swimlaneHead=0;swimlaneBody=0;fillColor=none;collapsible=0;dropTarget=0;points=[[0,0.5],[1,0.5]];portConstraint=eastwest;top=0;left=0;right=0;bottom=1;" vertex="1" parent="DbLl5ZKrvp2yoWORLzQD-294">
          <mxGeometry y="30" width="180" height="30" as="geometry" />
        </mxCell>
        <mxCell id="DbLl5ZKrvp2yoWORLzQD-296" value="PK" style="shape=partialRectangle;connectable=0;fillColor=none;top=0;left=0;bottom=0;right=0;fontStyle=1;overflow=hidden;whiteSpace=wrap;html=1;" vertex="1" parent="DbLl5ZKrvp2yoWORLzQD-295">
          <mxGeometry width="30" height="30" as="geometry">
            <mxRectangle width="30" height="30" as="alternateBounds" />
          </mxGeometry>
        </mxCell>
        <mxCell id="DbLl5ZKrvp2yoWORLzQD-297" value="Store_type_ID" style="shape=partialRectangle;connectable=0;fillColor=none;top=0;left=0;bottom=0;right=0;align=left;spacingLeft=6;fontStyle=5;overflow=hidden;whiteSpace=wrap;html=1;" vertex="1" parent="DbLl5ZKrvp2yoWORLzQD-295">
          <mxGeometry x="30" width="150" height="30" as="geometry">
            <mxRectangle width="150" height="30" as="alternateBounds" />
          </mxGeometry>
        </mxCell>
        <mxCell id="DbLl5ZKrvp2yoWORLzQD-298" value="" style="shape=tableRow;horizontal=0;startSize=0;swimlaneHead=0;swimlaneBody=0;fillColor=none;collapsible=0;dropTarget=0;points=[[0,0.5],[1,0.5]];portConstraint=eastwest;top=0;left=0;right=0;bottom=0;" vertex="1" parent="DbLl5ZKrvp2yoWORLzQD-294">
          <mxGeometry y="60" width="180" height="30" as="geometry" />
        </mxCell>
        <mxCell id="DbLl5ZKrvp2yoWORLzQD-299" value="" style="shape=partialRectangle;connectable=0;fillColor=none;top=0;left=0;bottom=0;right=0;editable=1;overflow=hidden;whiteSpace=wrap;html=1;" vertex="1" parent="DbLl5ZKrvp2yoWORLzQD-298">
          <mxGeometry width="30" height="30" as="geometry">
            <mxRectangle width="30" height="30" as="alternateBounds" />
          </mxGeometry>
        </mxCell>
        <mxCell id="DbLl5ZKrvp2yoWORLzQD-300" value="Store_type_name" style="shape=partialRectangle;connectable=0;fillColor=none;top=0;left=0;bottom=0;right=0;align=left;spacingLeft=6;overflow=hidden;whiteSpace=wrap;html=1;" vertex="1" parent="DbLl5ZKrvp2yoWORLzQD-298">
          <mxGeometry x="30" width="150" height="30" as="geometry">
            <mxRectangle width="150" height="30" as="alternateBounds" />
          </mxGeometry>
        </mxCell>
        <mxCell id="DbLl5ZKrvp2yoWORLzQD-301" value="" style="shape=tableRow;horizontal=0;startSize=0;swimlaneHead=0;swimlaneBody=0;fillColor=none;collapsible=0;dropTarget=0;points=[[0,0.5],[1,0.5]];portConstraint=eastwest;top=0;left=0;right=0;bottom=0;" vertex="1" parent="DbLl5ZKrvp2yoWORLzQD-294">
          <mxGeometry y="90" width="180" height="30" as="geometry" />
        </mxCell>
        <mxCell id="DbLl5ZKrvp2yoWORLzQD-302" value="" style="shape=partialRectangle;connectable=0;fillColor=none;top=0;left=0;bottom=0;right=0;editable=1;overflow=hidden;whiteSpace=wrap;html=1;" vertex="1" parent="DbLl5ZKrvp2yoWORLzQD-301">
          <mxGeometry width="30" height="30" as="geometry">
            <mxRectangle width="30" height="30" as="alternateBounds" />
          </mxGeometry>
        </mxCell>
        <mxCell id="DbLl5ZKrvp2yoWORLzQD-303" value="Date from" style="shape=partialRectangle;connectable=0;fillColor=none;top=0;left=0;bottom=0;right=0;align=left;spacingLeft=6;overflow=hidden;whiteSpace=wrap;html=1;" vertex="1" parent="DbLl5ZKrvp2yoWORLzQD-301">
          <mxGeometry x="30" width="150" height="30" as="geometry">
            <mxRectangle width="150" height="30" as="alternateBounds" />
          </mxGeometry>
        </mxCell>
        <mxCell id="DbLl5ZKrvp2yoWORLzQD-304" value="" style="shape=tableRow;horizontal=0;startSize=0;swimlaneHead=0;swimlaneBody=0;fillColor=none;collapsible=0;dropTarget=0;points=[[0,0.5],[1,0.5]];portConstraint=eastwest;top=0;left=0;right=0;bottom=0;" vertex="1" parent="DbLl5ZKrvp2yoWORLzQD-294">
          <mxGeometry y="120" width="180" height="30" as="geometry" />
        </mxCell>
        <mxCell id="DbLl5ZKrvp2yoWORLzQD-305" value="" style="shape=partialRectangle;connectable=0;fillColor=none;top=0;left=0;bottom=0;right=0;editable=1;overflow=hidden;whiteSpace=wrap;html=1;" vertex="1" parent="DbLl5ZKrvp2yoWORLzQD-304">
          <mxGeometry width="30" height="30" as="geometry">
            <mxRectangle width="30" height="30" as="alternateBounds" />
          </mxGeometry>
        </mxCell>
        <mxCell id="DbLl5ZKrvp2yoWORLzQD-306" value="Date to" style="shape=partialRectangle;connectable=0;fillColor=none;top=0;left=0;bottom=0;right=0;align=left;spacingLeft=6;overflow=hidden;whiteSpace=wrap;html=1;" vertex="1" parent="DbLl5ZKrvp2yoWORLzQD-304">
          <mxGeometry x="30" width="150" height="30" as="geometry">
            <mxRectangle width="150" height="30" as="alternateBounds" />
          </mxGeometry>
        </mxCell>
        <mxCell id="DbLl5ZKrvp2yoWORLzQD-307" value="Dim_Customer_loyalty_status" style="shape=table;startSize=30;container=1;collapsible=1;childLayout=tableLayout;fixedRows=1;rowLines=0;fontStyle=1;align=center;resizeLast=1;html=1;fillColor=#ffe6cc;strokeColor=#d79b00;" vertex="1" parent="1">
          <mxGeometry x="1238" y="60" width="210" height="150" as="geometry" />
        </mxCell>
        <mxCell id="DbLl5ZKrvp2yoWORLzQD-308" value="" style="shape=tableRow;horizontal=0;startSize=0;swimlaneHead=0;swimlaneBody=0;fillColor=none;collapsible=0;dropTarget=0;points=[[0,0.5],[1,0.5]];portConstraint=eastwest;top=0;left=0;right=0;bottom=1;" vertex="1" parent="DbLl5ZKrvp2yoWORLzQD-307">
          <mxGeometry y="30" width="210" height="30" as="geometry" />
        </mxCell>
        <mxCell id="DbLl5ZKrvp2yoWORLzQD-309" value="PK" style="shape=partialRectangle;connectable=0;fillColor=none;top=0;left=0;bottom=0;right=0;fontStyle=1;overflow=hidden;whiteSpace=wrap;html=1;" vertex="1" parent="DbLl5ZKrvp2yoWORLzQD-308">
          <mxGeometry width="30" height="30" as="geometry">
            <mxRectangle width="30" height="30" as="alternateBounds" />
          </mxGeometry>
        </mxCell>
        <mxCell id="DbLl5ZKrvp2yoWORLzQD-310" value="Customer_loyalty_status_ID" style="shape=partialRectangle;connectable=0;fillColor=none;top=0;left=0;bottom=0;right=0;align=left;spacingLeft=6;fontStyle=5;overflow=hidden;whiteSpace=wrap;html=1;" vertex="1" parent="DbLl5ZKrvp2yoWORLzQD-308">
          <mxGeometry x="30" width="180" height="30" as="geometry">
            <mxRectangle width="180" height="30" as="alternateBounds" />
          </mxGeometry>
        </mxCell>
        <mxCell id="DbLl5ZKrvp2yoWORLzQD-311" value="" style="shape=tableRow;horizontal=0;startSize=0;swimlaneHead=0;swimlaneBody=0;fillColor=none;collapsible=0;dropTarget=0;points=[[0,0.5],[1,0.5]];portConstraint=eastwest;top=0;left=0;right=0;bottom=0;" vertex="1" parent="DbLl5ZKrvp2yoWORLzQD-307">
          <mxGeometry y="60" width="210" height="30" as="geometry" />
        </mxCell>
        <mxCell id="DbLl5ZKrvp2yoWORLzQD-312" value="" style="shape=partialRectangle;connectable=0;fillColor=none;top=0;left=0;bottom=0;right=0;editable=1;overflow=hidden;whiteSpace=wrap;html=1;" vertex="1" parent="DbLl5ZKrvp2yoWORLzQD-311">
          <mxGeometry width="30" height="30" as="geometry">
            <mxRectangle width="30" height="30" as="alternateBounds" />
          </mxGeometry>
        </mxCell>
        <mxCell id="DbLl5ZKrvp2yoWORLzQD-313" value="customer_loyalty_status_name" style="shape=partialRectangle;connectable=0;fillColor=none;top=0;left=0;bottom=0;right=0;align=left;spacingLeft=6;overflow=hidden;whiteSpace=wrap;html=1;" vertex="1" parent="DbLl5ZKrvp2yoWORLzQD-311">
          <mxGeometry x="30" width="180" height="30" as="geometry">
            <mxRectangle width="180" height="30" as="alternateBounds" />
          </mxGeometry>
        </mxCell>
        <mxCell id="DbLl5ZKrvp2yoWORLzQD-314" value="" style="shape=tableRow;horizontal=0;startSize=0;swimlaneHead=0;swimlaneBody=0;fillColor=none;collapsible=0;dropTarget=0;points=[[0,0.5],[1,0.5]];portConstraint=eastwest;top=0;left=0;right=0;bottom=0;" vertex="1" parent="DbLl5ZKrvp2yoWORLzQD-307">
          <mxGeometry y="90" width="210" height="30" as="geometry" />
        </mxCell>
        <mxCell id="DbLl5ZKrvp2yoWORLzQD-315" value="" style="shape=partialRectangle;connectable=0;fillColor=none;top=0;left=0;bottom=0;right=0;editable=1;overflow=hidden;whiteSpace=wrap;html=1;" vertex="1" parent="DbLl5ZKrvp2yoWORLzQD-314">
          <mxGeometry width="30" height="30" as="geometry">
            <mxRectangle width="30" height="30" as="alternateBounds" />
          </mxGeometry>
        </mxCell>
        <mxCell id="DbLl5ZKrvp2yoWORLzQD-316" value="Date from" style="shape=partialRectangle;connectable=0;fillColor=none;top=0;left=0;bottom=0;right=0;align=left;spacingLeft=6;overflow=hidden;whiteSpace=wrap;html=1;" vertex="1" parent="DbLl5ZKrvp2yoWORLzQD-314">
          <mxGeometry x="30" width="180" height="30" as="geometry">
            <mxRectangle width="180" height="30" as="alternateBounds" />
          </mxGeometry>
        </mxCell>
        <mxCell id="DbLl5ZKrvp2yoWORLzQD-317" value="" style="shape=tableRow;horizontal=0;startSize=0;swimlaneHead=0;swimlaneBody=0;fillColor=none;collapsible=0;dropTarget=0;points=[[0,0.5],[1,0.5]];portConstraint=eastwest;top=0;left=0;right=0;bottom=0;" vertex="1" parent="DbLl5ZKrvp2yoWORLzQD-307">
          <mxGeometry y="120" width="210" height="30" as="geometry" />
        </mxCell>
        <mxCell id="DbLl5ZKrvp2yoWORLzQD-318" value="" style="shape=partialRectangle;connectable=0;fillColor=none;top=0;left=0;bottom=0;right=0;editable=1;overflow=hidden;whiteSpace=wrap;html=1;" vertex="1" parent="DbLl5ZKrvp2yoWORLzQD-317">
          <mxGeometry width="30" height="30" as="geometry">
            <mxRectangle width="30" height="30" as="alternateBounds" />
          </mxGeometry>
        </mxCell>
        <mxCell id="DbLl5ZKrvp2yoWORLzQD-319" value="Date to" style="shape=partialRectangle;connectable=0;fillColor=none;top=0;left=0;bottom=0;right=0;align=left;spacingLeft=6;overflow=hidden;whiteSpace=wrap;html=1;" vertex="1" parent="DbLl5ZKrvp2yoWORLzQD-317">
          <mxGeometry x="30" width="180" height="30" as="geometry">
            <mxRectangle width="180" height="30" as="alternateBounds" />
          </mxGeometry>
        </mxCell>
        <mxCell id="DbLl5ZKrvp2yoWORLzQD-320" style="edgeStyle=orthogonalEdgeStyle;rounded=0;orthogonalLoop=1;jettySize=auto;html=1;exitX=1;exitY=0.5;exitDx=0;exitDy=0;entryX=0;entryY=0.5;entryDx=0;entryDy=0;endArrow=none;startFill=0;" edge="1" parent="1" source="DbLl5ZKrvp2yoWORLzQD-152" target="DbLl5ZKrvp2yoWORLzQD-324">
          <mxGeometry relative="1" as="geometry">
            <mxPoint x="888" y="950" as="targetPoint" />
            <Array as="points">
              <mxPoint x="888" y="365" />
              <mxPoint x="888" y="872" />
            </Array>
          </mxGeometry>
        </mxCell>
        <mxCell id="DbLl5ZKrvp2yoWORLzQD-321" value="n" style="edgeLabel;html=1;align=center;verticalAlign=middle;resizable=0;points=[];fontStyle=1" vertex="1" connectable="0" parent="DbLl5ZKrvp2yoWORLzQD-320">
          <mxGeometry x="-0.9365" y="-2" relative="1" as="geometry">
            <mxPoint x="-3" y="-3" as="offset" />
          </mxGeometry>
        </mxCell>
        <mxCell id="DbLl5ZKrvp2yoWORLzQD-322" value="1" style="edgeLabel;html=1;align=center;verticalAlign=middle;resizable=0;points=[];fontStyle=1" vertex="1" connectable="0" parent="DbLl5ZKrvp2yoWORLzQD-320">
          <mxGeometry x="0.9353" y="3" relative="1" as="geometry">
            <mxPoint y="1" as="offset" />
          </mxGeometry>
        </mxCell>
        <mxCell id="DbLl5ZKrvp2yoWORLzQD-323" value="Dim_Payment_method" style="shape=table;startSize=30;container=1;collapsible=1;childLayout=tableLayout;fixedRows=1;rowLines=0;fontStyle=1;align=center;resizeLast=1;html=1;fillColor=#ffe6cc;strokeColor=#d79b00;" vertex="1" parent="1">
          <mxGeometry x="918" y="827" width="180" height="150" as="geometry" />
        </mxCell>
        <mxCell id="DbLl5ZKrvp2yoWORLzQD-324" value="" style="shape=tableRow;horizontal=0;startSize=0;swimlaneHead=0;swimlaneBody=0;fillColor=none;collapsible=0;dropTarget=0;points=[[0,0.5],[1,0.5]];portConstraint=eastwest;top=0;left=0;right=0;bottom=1;" vertex="1" parent="DbLl5ZKrvp2yoWORLzQD-323">
          <mxGeometry y="30" width="180" height="30" as="geometry" />
        </mxCell>
        <mxCell id="DbLl5ZKrvp2yoWORLzQD-325" value="PK" style="shape=partialRectangle;connectable=0;fillColor=none;top=0;left=0;bottom=0;right=0;fontStyle=1;overflow=hidden;whiteSpace=wrap;html=1;" vertex="1" parent="DbLl5ZKrvp2yoWORLzQD-324">
          <mxGeometry width="30" height="30" as="geometry">
            <mxRectangle width="30" height="30" as="alternateBounds" />
          </mxGeometry>
        </mxCell>
        <mxCell id="DbLl5ZKrvp2yoWORLzQD-326" value="Payment_method_ID" style="shape=partialRectangle;connectable=0;fillColor=none;top=0;left=0;bottom=0;right=0;align=left;spacingLeft=6;fontStyle=5;overflow=hidden;whiteSpace=wrap;html=1;" vertex="1" parent="DbLl5ZKrvp2yoWORLzQD-324">
          <mxGeometry x="30" width="150" height="30" as="geometry">
            <mxRectangle width="150" height="30" as="alternateBounds" />
          </mxGeometry>
        </mxCell>
        <mxCell id="DbLl5ZKrvp2yoWORLzQD-327" value="" style="shape=tableRow;horizontal=0;startSize=0;swimlaneHead=0;swimlaneBody=0;fillColor=none;collapsible=0;dropTarget=0;points=[[0,0.5],[1,0.5]];portConstraint=eastwest;top=0;left=0;right=0;bottom=0;" vertex="1" parent="DbLl5ZKrvp2yoWORLzQD-323">
          <mxGeometry y="60" width="180" height="30" as="geometry" />
        </mxCell>
        <mxCell id="DbLl5ZKrvp2yoWORLzQD-328" value="" style="shape=partialRectangle;connectable=0;fillColor=none;top=0;left=0;bottom=0;right=0;editable=1;overflow=hidden;whiteSpace=wrap;html=1;" vertex="1" parent="DbLl5ZKrvp2yoWORLzQD-327">
          <mxGeometry width="30" height="30" as="geometry">
            <mxRectangle width="30" height="30" as="alternateBounds" />
          </mxGeometry>
        </mxCell>
        <mxCell id="DbLl5ZKrvp2yoWORLzQD-329" value="Payment_method_name" style="shape=partialRectangle;connectable=0;fillColor=none;top=0;left=0;bottom=0;right=0;align=left;spacingLeft=6;overflow=hidden;whiteSpace=wrap;html=1;" vertex="1" parent="DbLl5ZKrvp2yoWORLzQD-327">
          <mxGeometry x="30" width="150" height="30" as="geometry">
            <mxRectangle width="150" height="30" as="alternateBounds" />
          </mxGeometry>
        </mxCell>
        <mxCell id="DbLl5ZKrvp2yoWORLzQD-330" value="" style="shape=tableRow;horizontal=0;startSize=0;swimlaneHead=0;swimlaneBody=0;fillColor=none;collapsible=0;dropTarget=0;points=[[0,0.5],[1,0.5]];portConstraint=eastwest;top=0;left=0;right=0;bottom=0;" vertex="1" parent="DbLl5ZKrvp2yoWORLzQD-323">
          <mxGeometry y="90" width="180" height="30" as="geometry" />
        </mxCell>
        <mxCell id="DbLl5ZKrvp2yoWORLzQD-331" value="" style="shape=partialRectangle;connectable=0;fillColor=none;top=0;left=0;bottom=0;right=0;editable=1;overflow=hidden;whiteSpace=wrap;html=1;" vertex="1" parent="DbLl5ZKrvp2yoWORLzQD-330">
          <mxGeometry width="30" height="30" as="geometry">
            <mxRectangle width="30" height="30" as="alternateBounds" />
          </mxGeometry>
        </mxCell>
        <mxCell id="DbLl5ZKrvp2yoWORLzQD-332" value="Date from" style="shape=partialRectangle;connectable=0;fillColor=none;top=0;left=0;bottom=0;right=0;align=left;spacingLeft=6;overflow=hidden;whiteSpace=wrap;html=1;" vertex="1" parent="DbLl5ZKrvp2yoWORLzQD-330">
          <mxGeometry x="30" width="150" height="30" as="geometry">
            <mxRectangle width="150" height="30" as="alternateBounds" />
          </mxGeometry>
        </mxCell>
        <mxCell id="DbLl5ZKrvp2yoWORLzQD-333" value="" style="shape=tableRow;horizontal=0;startSize=0;swimlaneHead=0;swimlaneBody=0;fillColor=none;collapsible=0;dropTarget=0;points=[[0,0.5],[1,0.5]];portConstraint=eastwest;top=0;left=0;right=0;bottom=0;" vertex="1" parent="DbLl5ZKrvp2yoWORLzQD-323">
          <mxGeometry y="120" width="180" height="30" as="geometry" />
        </mxCell>
        <mxCell id="DbLl5ZKrvp2yoWORLzQD-334" value="" style="shape=partialRectangle;connectable=0;fillColor=none;top=0;left=0;bottom=0;right=0;editable=1;overflow=hidden;whiteSpace=wrap;html=1;" vertex="1" parent="DbLl5ZKrvp2yoWORLzQD-333">
          <mxGeometry width="30" height="30" as="geometry">
            <mxRectangle width="30" height="30" as="alternateBounds" />
          </mxGeometry>
        </mxCell>
        <mxCell id="DbLl5ZKrvp2yoWORLzQD-335" value="Date to" style="shape=partialRectangle;connectable=0;fillColor=none;top=0;left=0;bottom=0;right=0;align=left;spacingLeft=6;overflow=hidden;whiteSpace=wrap;html=1;" vertex="1" parent="DbLl5ZKrvp2yoWORLzQD-333">
          <mxGeometry x="30" width="150" height="30" as="geometry">
            <mxRectangle width="150" height="30" as="alternateBounds" />
          </mxGeometry>
        </mxCell>
        <mxCell id="DbLl5ZKrvp2yoWORLzQD-336" value="" style="rounded=1;whiteSpace=wrap;html=1;fillColor=none;strokeColor=#0066CC;strokeWidth=2;" vertex="1" parent="1">
          <mxGeometry x="638" y="10" width="260" height="40" as="geometry" />
        </mxCell>
      </root>
    </mxGraphModel>
  </diagram>
</mxfile>
